<svg width="166" height="81" viewBox="0 0 166 81" fill="none" xmlns="http://www.w3.org/2000/svg">
<g clip-path="url(#clip0_131_55)">
<path d="M3.0559 24.0206C2.97686 24.4718 2.93691 24.929 2.9365 25.3871V25.4866C2.9365 25.4535 2.9365 25.4203 2.9365 25.3871C2.93578 24.929 2.97574 24.4717 3.0559 24.0206V24.0206Z" fill="white"/>
<path d="M3.1798 27.3155C3.17361 27.2973 3.16843 27.2788 3.1643 27.2601L3.13773 27.1472C3.15101 27.1981 3.1643 27.2601 3.1798 27.3155Z" fill="white"/>
<path d="M4.15047 21.2278C4.01779 21.4356 3.89395 21.6523 3.77896 21.8735C3.89154 21.6519 4.01554 21.4364 4.15047 21.2278V21.2278Z" fill="white"/>
<path d="M9.28712 32.9804H9.2385L9.09705 32.9517L9.28712 32.9804Z" fill="white"/>
<path d="M11.0747 33.0909H10.9478H10.9079C10.9527 33.0982 11.01 33.0958 11.0747 33.0909Z" fill="white"/>
<path d="M23.9276 21.9752C24.0338 21.7578 24.1512 21.546 24.2791 21.3406C24.1531 21.5462 24.0359 21.7585 23.9276 21.9752Z" fill="white"/>
<path d="M32.2171 32.9804L32.4054 32.945L32.2636 32.9738L32.2171 32.9804Z" fill="white"/>
<path d="M13.5989 24.2616C13.2173 24.2622 12.845 24.143 12.5348 23.9207C12.2245 23.6984 11.9919 23.3843 11.8697 23.0227C11.7476 22.6611 11.742 22.2703 11.8539 21.9054C11.9658 21.5405 12.1895 21.22 12.4933 20.989C11.475 20.5616 10.3399 20.5011 9.28193 20.8179C8.22399 21.1348 7.30895 21.8093 6.69324 22.7261C6.07752 23.6429 5.79936 24.7451 5.90632 25.8443C6.01327 26.9435 6.49869 27.9714 7.2796 28.7523C8.0605 29.5332 9.0884 30.0187 10.1876 30.1256C11.2868 30.2326 12.389 29.9544 13.3058 29.3387C14.2226 28.723 14.897 27.8079 15.2139 26.75C15.5307 25.692 15.4703 24.5568 15.0428 23.5385C14.8744 23.7624 14.6563 23.9442 14.4058 24.0697C14.1553 24.1951 13.8791 24.2608 13.5989 24.2616V24.2616Z" fill="white"/>
<path d="M33.7983 24.2616C33.4166 24.2622 33.0444 24.143 32.7341 23.9207C32.4238 23.6984 32.1912 23.3843 32.0691 23.0227C31.9469 22.6611 31.9414 22.2703 32.0533 21.9054C32.1651 21.5405 32.3888 21.22 32.6927 20.989C31.6744 20.5616 30.5392 20.5011 29.4813 20.8179C28.4233 21.1348 27.5083 21.8093 26.8926 22.7261C26.2769 23.6429 25.9987 24.7451 26.1057 25.8443C26.2126 26.9435 26.698 27.9714 27.4789 28.7523C28.2598 29.5332 29.2877 30.0187 30.3869 30.1256C31.4861 30.2326 32.5883 29.9544 33.5051 29.3387C34.4219 28.723 35.0964 27.8079 35.4132 26.75C35.73 25.692 35.6696 24.5568 35.2422 23.5385C35.0737 23.7624 34.8557 23.9442 34.6051 24.0697C34.3546 24.1951 34.0784 24.2608 33.7983 24.2616V24.2616Z" fill="white"/>
<path d="M41.1274 7.36558C41.0165 7.32981 40.8971 7.33001 40.7863 7.36615C40.6755 7.40229 40.579 7.47252 40.5105 7.5668C40.0583 8.18855 39.5465 8.76472 38.9825 9.28713V6.35064L41.0766 5.85533C41.1976 5.82711 41.3056 5.75877 41.3828 5.66141C41.4601 5.56405 41.5022 5.44341 41.5022 5.31911C41.5022 5.19481 41.4601 5.07417 41.3828 4.97681C41.3056 4.87945 41.1976 4.8111 41.0766 4.78289L20.8768 0.013305C20.7929 -0.00435363 20.7063 -0.00435363 20.6225 0.013305L10.5237 2.3992L0.422687 4.78289C0.301631 4.8111 0.193684 4.87945 0.116407 4.97681C0.03913 5.07417 -0.00292969 5.19481 -0.00292969 5.31911C-0.00292969 5.44341 0.03913 5.56405 0.116407 5.66141C0.193684 5.75877 0.301631 5.82711 0.422687 5.85533L9.44017 7.98472C7.99212 8.92671 6.66761 10.0462 5.49751 11.317C3.70813 10.457 2.16093 9.16514 0.995402 7.55796C0.926836 7.46277 0.82966 7.39198 0.718039 7.35589C0.606418 7.31979 0.486188 7.3203 0.374872 7.35732C0.263557 7.39434 0.166976 7.46595 0.099207 7.5617C0.0314381 7.65746 -0.00397591 7.77235 -0.00187297 7.88964V45.5864C0.00086605 50.0414 1.43494 54.3777 4.08894 57.9559H4.06683L4.00713 57.9736L3.94742 58.0001L3.91425 58.0156L0.30328 59.8266C0.211487 59.8722 0.134244 59.9425 0.0802456 60.0296C0.0262476 60.1167 -0.00236153 60.2172 -0.00236153 60.3197C-0.00236153 60.4222 0.0262476 60.5226 0.0802456 60.6098C0.134244 60.6969 0.211487 60.7672 0.30328 60.8128L3.92973 62.626H3.94742L4.00713 62.6503L4.06683 62.668C4.108 62.6786 4.15037 62.6838 4.19287 62.6835H9.00456C12.4614 65.0572 16.5563 66.3278 20.7496 66.3278C24.943 66.3278 29.0379 65.0572 32.4947 62.6835H39.1284C39.7577 62.6835 40.3612 62.4335 40.8062 61.9885C41.2511 61.5436 41.5011 60.9401 41.5011 60.3108C41.5011 59.6816 41.2511 59.0781 40.8062 58.6331C40.3612 58.1882 39.7577 57.9382 39.1284 57.9382H37.4169C40.0678 54.3621 41.4995 50.029 41.5011 45.5775V7.88964C41.5013 7.77421 41.4654 7.6616 41.3984 7.56762C41.3314 7.47363 41.2366 7.40298 41.1274 7.36558V7.36558ZM3.64227 61.2506L1.78261 60.3197L3.64227 59.391V61.2506ZM36.7314 6.88133L37.8813 6.60935V9.12129L36.7314 9.39105V6.88133ZM35.6258 7.14225V10.0876C35.6255 10.1735 35.6453 10.2582 35.6837 10.335C35.7221 10.4119 35.778 10.4786 35.8469 10.5298C35.944 10.608 36.0651 10.6502 36.1897 10.6492C36.2322 10.6496 36.2746 10.6444 36.3157 10.6338L37.7641 10.291C37.2112 10.6876 36.6245 11.0346 36.0106 11.3281C34.839 10.053 33.5122 8.92981 32.0613 7.98472L35.6258 7.14225ZM21.3013 10.5254L28.8461 8.74317L30.2923 8.40264V11.8344C29.4403 11.8803 28.5918 11.9778 27.7516 12.1263H27.7405C27.4552 12.1772 27.1722 12.2347 26.8914 12.2966L26.6393 12.3541L26.385 12.4138L26.3032 12.4359L25.9295 12.5332L25.8499 12.5553L25.4828 12.6592L25.4342 12.6747L25.0184 12.803L24.9853 12.8251L24.6868 12.9246C24.4855 12.9931 24.2865 13.0639 24.0875 13.1457C23.9526 13.1966 23.8177 13.2474 23.6851 13.3027L23.3025 13.4597C22.6157 13.7506 21.9454 14.0791 21.2947 14.4437L21.3013 10.5254ZM11.2003 8.40264L12.6531 8.74538L20.1979 10.5254V14.4282C20.1227 14.3862 20.0476 14.3442 19.9768 14.3066C19.3975 13.9894 18.8027 13.7016 18.1945 13.4442L17.812 13.2872C17.6793 13.2319 17.5444 13.1811 17.4095 13.1302C17.2105 13.055 17.0115 12.9843 16.8103 12.9091L16.5073 12.8251L16.472 12.814L16.1005 12.6968C15.9221 12.6437 15.743 12.5929 15.5631 12.5442L15.1894 12.4469L15.1076 12.4248L14.8732 12.3696L14.5924 12.2988C14.3116 12.2347 14.0285 12.1794 13.7455 12.1285H13.7344C12.8942 11.9801 12.0457 11.8827 11.1937 11.8367L11.2003 8.40264ZM15.4017 45.4427C16.0576 45.6179 16.7218 45.7603 17.3918 45.8694C17.6329 45.9092 17.8761 45.9446 18.1171 45.9756C18.3029 45.9977 18.4864 46.0198 18.6744 46.0375H18.754L19.2449 46.0773H19.309C19.696 46.106 20.0851 46.1215 20.4699 46.1237C20.649 46.1237 20.8348 46.1237 21.0072 46.1237C21.392 46.1237 21.7812 46.106 22.1681 46.0773H22.2323L22.7232 46.0375H22.8028C22.9907 46.0198 23.1743 45.9977 23.36 45.9756C23.601 45.9446 23.8443 45.9092 24.0853 45.8694C24.7555 45.7604 25.4198 45.6172 26.0754 45.4404C26.0754 45.4913 26.0754 45.5399 26.0754 45.5886C26.0723 50.0411 27.5054 54.3759 30.1618 57.9493H29.4387V57.8055C29.4441 57.7109 29.43 57.6162 29.3975 57.5272C29.365 57.4382 29.3146 57.3567 29.2495 57.2879C29.1844 57.219 29.1059 57.1641 29.0189 57.1266C28.9319 57.0891 28.8381 57.0698 28.7433 57.0698C28.6485 57.0698 28.5547 57.0891 28.4677 57.1266C28.3807 57.1641 28.3022 57.219 28.2371 57.2879C28.172 57.3567 28.1216 57.4382 28.0891 57.5272C28.0566 57.6162 28.0425 57.7109 28.0479 57.8055V57.9493H27.1965V57.8055C27.2019 57.7109 27.1878 57.6162 27.1553 57.5272C27.1228 57.4382 27.0724 57.3567 27.0073 57.2879C26.9422 57.219 26.8637 57.1641 26.7767 57.1266C26.6896 57.0891 26.5959 57.0698 26.5011 57.0698C26.4063 57.0698 26.3125 57.0891 26.2255 57.1266C26.1385 57.1641 26.06 57.219 25.9949 57.2879C25.9298 57.3567 25.8794 57.4382 25.8469 57.5272C25.8143 57.6162 25.8003 57.7109 25.8057 57.8055V57.9493H24.9455V57.8055C24.9508 57.7109 24.9368 57.6162 24.9042 57.5272C24.8717 57.4382 24.8213 57.3567 24.7562 57.2879C24.6911 57.219 24.6127 57.1641 24.5256 57.1266C24.4386 57.0891 24.3448 57.0698 24.25 57.0698C24.1553 57.0698 24.0615 57.0891 23.9744 57.1266C23.8874 57.1641 23.8089 57.219 23.7438 57.2879C23.6787 57.3567 23.6284 57.4382 23.5958 57.5272C23.5633 57.6162 23.5493 57.7109 23.5546 57.8055V57.9493H17.9358V57.8055C17.9411 57.7109 17.9271 57.6162 17.8946 57.5272C17.862 57.4382 17.8117 57.3567 17.7466 57.2879C17.6815 57.219 17.603 57.1641 17.516 57.1266C17.4289 57.0891 17.3351 57.0698 17.2404 57.0698C17.1456 57.0698 17.0518 57.0891 16.9648 57.1266C16.8777 57.1641 16.7993 57.219 16.7342 57.2879C16.6691 57.3567 16.6187 57.4382 16.5862 57.5272C16.5536 57.6162 16.5396 57.7109 16.5449 57.8055V57.9493H15.6848V57.8055C15.6901 57.7109 15.6761 57.6162 15.6435 57.5272C15.611 57.4382 15.5606 57.3567 15.4955 57.2879C15.4304 57.219 15.3519 57.1641 15.2649 57.1266C15.1779 57.0891 15.0841 57.0698 14.9893 57.0698C14.8945 57.0698 14.8008 57.0891 14.7137 57.1266C14.6267 57.1641 14.5482 57.219 14.4831 57.2879C14.418 57.3567 14.3676 57.4382 14.3351 57.5272C14.3026 57.6162 14.2885 57.7109 14.2939 57.8055V57.9493H13.4337V57.8055C13.4337 57.6208 13.3603 57.4436 13.2297 57.313C13.0991 57.1824 12.9219 57.109 12.7372 57.109C12.5524 57.109 12.3752 57.1824 12.2446 57.313C12.114 57.4436 12.0406 57.6208 12.0406 57.8055V57.9493H11.3197C13.9761 54.3759 15.4092 50.0411 15.4061 45.5886C15.4061 45.5377 15.4061 45.4891 15.4039 45.4404L15.4017 45.4427ZM30.5488 46.9905C30.6207 46.9816 30.6937 46.987 30.7635 47.0064C30.8334 47.0258 30.8986 47.0589 30.9556 47.1038C31.0126 47.1486 31.0601 47.2043 31.0954 47.2676C31.1307 47.3309 31.1531 47.4005 31.1613 47.4725C31.5104 50.4078 32.6799 53.1852 34.5357 55.486C34.6275 55.5997 34.6703 55.7453 34.6547 55.8907C34.6392 56.036 34.5665 56.1692 34.4528 56.261C34.339 56.3528 34.1934 56.3956 34.0481 56.3801C33.9027 56.3645 33.7695 56.2919 33.6777 56.1781C31.6929 53.7133 30.4429 50.739 30.0712 47.5964C30.0543 47.4519 30.0953 47.3066 30.1852 47.1923C30.2751 47.0779 30.4066 47.0038 30.551 46.9861L30.5488 46.9905ZM11.4303 47.5964C11.0539 50.7346 9.80264 53.7038 7.81933 56.1648C7.72755 56.2786 7.59433 56.3512 7.44898 56.3668C7.30363 56.3823 7.15806 56.3395 7.04428 56.2477C6.93051 56.156 6.85786 56.0227 6.8423 55.8774C6.82675 55.7321 6.86958 55.5865 6.96136 55.4727C8.81712 53.1719 9.98665 50.3945 10.3357 47.4593C10.3527 47.3127 10.4273 47.1788 10.543 47.0872C10.6587 46.9955 10.8061 46.9536 10.9527 46.9706C11.0993 46.9876 11.2331 47.0622 11.3248 47.1779C11.4164 47.2936 11.4584 47.4409 11.4414 47.5875L11.4303 47.5964ZM5.72527 52.4721C5.6756 52.5515 5.60648 52.617 5.52444 52.6623C5.44241 52.7075 5.35018 52.7311 5.25648 52.7308C5.15388 52.731 5.05337 52.7019 4.96681 52.6468C4.90516 52.6088 4.85164 52.559 4.80933 52.5002C4.76703 52.4415 4.73678 52.3749 4.72034 52.3044C4.70389 52.2339 4.70157 52.1608 4.71351 52.0894C4.72545 52.018 4.75142 51.9497 4.78991 51.8883C5.96736 49.9974 6.59024 47.8139 6.58766 45.5864V45.4626C6.58534 45.39 6.59733 45.3176 6.62297 45.2497C6.6486 45.1817 6.68737 45.1195 6.73707 45.0665C6.83742 44.9595 6.97617 44.8968 7.12278 44.8921C7.2694 44.8874 7.41187 44.9411 7.51886 45.0415C7.62585 45.1418 7.68859 45.2806 7.69329 45.4272C7.69329 45.4802 7.69329 45.5333 7.69329 45.5864C7.69408 48.0205 7.01226 50.406 5.72527 52.4721V52.4721ZM20.7485 65.2308C17.3584 65.2371 14.0251 64.3607 11.0765 62.6879H30.4227C27.4733 64.3607 24.1393 65.237 20.7485 65.2308V65.2308ZM36.7558 61.5867H4.74347V59.0505H12.0406V59.6254C12.0406 59.8101 12.114 59.9873 12.2446 60.1179C12.3752 60.2485 12.5524 60.3219 12.7372 60.3219C12.9219 60.3219 13.0991 60.2485 13.2297 60.1179C13.3603 59.9873 13.4337 59.8101 13.4337 59.6254V59.0505H14.2939V59.6254C14.3039 59.803 14.3815 59.9701 14.5109 60.0923C14.6402 60.2146 14.8114 60.2827 14.9893 60.2827C15.1673 60.2827 15.3385 60.2146 15.4678 60.0923C15.5971 59.9701 15.6747 59.803 15.6848 59.6254V59.0505H16.5449V59.6254C16.5549 59.803 16.6326 59.9701 16.7619 60.0923C16.8912 60.2146 17.0624 60.2827 17.2404 60.2827C17.4183 60.2827 17.5895 60.2146 17.7188 60.0923C17.8481 59.9701 17.9258 59.803 17.9358 59.6254V59.0505H23.5634V59.6254C23.5735 59.803 23.6511 59.9701 23.7804 60.0923C23.9097 60.2146 24.0809 60.2827 24.2589 60.2827C24.4368 60.2827 24.608 60.2146 24.7373 60.0923C24.8667 59.9701 24.9443 59.803 24.9543 59.6254V59.0505H25.8145V59.6254C25.8245 59.803 25.9022 59.9701 26.0315 60.0923C26.1608 60.2146 26.332 60.2827 26.5099 60.2827C26.6879 60.2827 26.8591 60.2146 26.9884 60.0923C27.1177 59.9701 27.1954 59.803 27.2054 59.6254V59.0505H28.0656V59.6254C28.0756 59.803 28.1532 59.9701 28.2825 60.0923C28.4119 60.2146 28.583 60.2827 28.761 60.2827C28.9389 60.2827 29.1101 60.2146 29.2395 60.0923C29.3688 59.9701 29.4464 59.803 29.4564 59.6254V59.0505H36.7536L36.7558 61.5867ZM36.5346 52.6424C36.4481 52.6975 36.3476 52.7266 36.245 52.7264C36.1513 52.7267 36.059 52.7031 35.977 52.6579C35.895 52.6126 35.8259 52.5471 35.7762 52.4677C34.49 50.4014 33.8089 48.0159 33.8104 45.582C33.8104 45.5311 33.8104 45.4825 33.8104 45.4316C33.8121 45.2867 33.8709 45.1484 33.974 45.0466C34.077 44.9447 34.2161 44.8876 34.361 44.8876V44.8876C34.4333 44.8888 34.5047 44.9042 34.571 44.9329C34.6374 44.9617 34.6974 45.0032 34.7478 45.0551C34.7981 45.1071 34.8376 45.1684 34.8642 45.2357C34.8908 45.3029 34.9039 45.3748 34.9027 45.4471V45.5797C34.9002 47.8073 35.523 49.9908 36.7005 51.8817C36.7404 51.9427 36.7678 52.0111 36.7809 52.0829C36.7941 52.1546 36.7928 52.2283 36.7772 52.2995C36.7615 52.3708 36.7318 52.4382 36.6898 52.4978C36.6478 52.5575 36.5943 52.6081 36.5324 52.6468L36.5346 52.6424ZM40.3977 25.513C40.3977 25.7629 40.3977 26.0083 40.38 26.2427C40.1929 30.6322 38.5357 34.8314 35.6745 38.1656C35.3118 38.5901 34.9315 38.997 34.5335 39.3861C34.4362 39.4834 34.3367 39.5807 34.2349 39.6758C34.1332 39.7709 34.0315 39.866 33.9298 39.9588C33.6224 40.2375 33.304 40.5072 32.979 40.7659C32.7578 40.9384 32.5367 41.1065 32.3156 41.2701C31.7531 41.6785 31.17 42.0579 30.5687 42.4067C29.856 42.8181 29.1173 43.183 28.3574 43.499L28.1606 43.583L28.0611 43.6228C27.8887 43.6914 27.7162 43.7577 27.5415 43.8218L27.2806 43.9169L27.0196 44.0054L26.7587 44.0916L26.4956 44.1734H26.4779C26.312 44.2265 26.1418 44.2751 25.956 44.326C25.063 44.5769 24.1534 44.7646 23.234 44.8876C22.8492 44.9363 22.4578 44.9739 22.0642 44.9982C21.8851 45.0115 21.706 45.0203 21.5269 45.0269C21.3478 45.0336 21.1797 45.0402 21.005 45.0402C20.8392 45.0402 20.6733 45.0402 20.4986 45.0402C20.1566 45.0402 19.8139 45.0269 19.4704 45.0004C19.068 44.9761 18.6655 44.9385 18.2675 44.8876C17.3469 44.7714 16.4357 44.5896 15.541 44.3437C15.3509 44.2928 15.174 44.242 15.0015 44.1867C13.5815 43.7542 12.2156 43.1607 10.9306 42.4177C10.33 42.0689 9.74766 41.6895 9.18588 41.2812C8.96476 41.1175 8.74363 40.9495 8.5225 40.777C8.19745 40.5183 7.87903 40.2485 7.57167 39.9699C7.46774 39.877 7.36602 39.7842 7.26651 39.6869C7.16701 39.5896 7.06529 39.4945 6.96578 39.3972C6.57071 39.008 6.19111 38.6012 5.82699 38.1766C2.96164 34.8404 1.30327 30.6366 1.11923 26.2427C1.10375 26.0017 1.10375 25.7584 1.10375 25.5152V9.42422C2.31287 10.7259 3.77484 11.7672 5.40022 12.4845H5.41127C5.95086 12.7242 6.50649 12.9259 7.07413 13.0882H7.0874C7.66323 13.253 8.24992 13.3771 8.84314 13.4597C8.93822 13.473 9.03552 13.4862 9.13281 13.4951C9.63759 13.5564 10.1457 13.5866 10.6542 13.5857C11.9203 13.5823 13.1743 13.8326 14.3421 14.3217C15.51 14.8109 16.568 15.529 17.4538 16.4338L17.6439 16.6328C17.7678 16.7677 17.8872 16.9048 18.0066 17.0463L18.179 17.2674C18.3869 17.5327 18.5771 17.8047 18.754 18.0833C18.8424 18.2248 18.9264 18.3664 19.0061 18.5101C19.0857 18.6538 19.1608 18.7975 19.2272 18.9523C19.867 20.2601 20.1969 21.6977 20.1913 23.1536C20.1913 23.3002 20.2495 23.4409 20.3532 23.5445C20.4569 23.6482 20.5975 23.7064 20.7441 23.7064C20.8907 23.7064 21.0313 23.6482 21.135 23.5445C21.2387 23.4409 21.2969 23.3002 21.2969 23.1536C21.2909 21.5668 21.6848 20.004 22.4423 18.6096C22.5684 18.3885 22.7033 18.1519 22.8492 17.9308C22.9222 17.8202 22.9974 17.7096 23.0703 17.6013C23.119 17.5327 23.1721 17.4642 23.2229 17.3956L23.3114 17.2807C23.4816 17.0595 23.6607 16.8517 23.8465 16.6505L24.0366 16.4515C24.9229 15.5462 25.9816 14.8277 27.1503 14.3385C28.3189 13.8494 29.5738 13.5994 30.8407 13.6034C31.148 13.6034 31.4532 13.6034 31.7583 13.5725C32.0635 13.5415 32.3487 13.5216 32.6428 13.4796H32.6694C32.7534 13.4796 32.8396 13.4553 32.9237 13.4398C33.1271 13.4066 33.3305 13.369 33.5318 13.327C33.6578 13.3005 33.7839 13.2739 33.9077 13.2408C34.0757 13.2032 34.2416 13.159 34.4052 13.1125H34.4185C34.56 13.0727 34.6993 13.0307 34.8408 12.9843C34.9824 12.9378 35.1194 12.8936 35.2565 12.8428C35.3936 12.7919 35.533 12.741 35.6678 12.6858C35.8027 12.6305 35.942 12.5752 36.0769 12.5155C37.7086 11.7984 39.1761 10.7547 40.3889 9.44855L40.3977 25.513Z" fill="white"/>
<path d="M30.8509 17.6697H30.6519C30.5237 17.6697 30.3954 17.6697 30.2694 17.6896C30.0593 17.7051 29.8515 17.7294 29.648 17.7604C29.5308 17.7803 29.4114 17.8002 29.2964 17.8245C29.1815 17.8488 29.0466 17.8798 28.9227 17.9107C28.7989 17.9417 28.6773 17.9771 28.5557 18.0147C28.4341 18.0523 28.3169 18.0921 28.1975 18.1363C28.0781 18.1805 27.9631 18.2247 27.8481 18.2734C27.7331 18.322 27.627 18.3729 27.5054 18.4282C27.3837 18.4834 27.2842 18.5387 27.1737 18.5984C27.0653 18.6581 26.9525 18.7201 26.8508 18.7842C26.7491 18.8483 26.6297 18.9169 26.539 18.9854C26.4484 19.054 26.3356 19.1269 26.2361 19.2065C26.1366 19.2861 26.0393 19.3569 25.9442 19.4277C25.8491 19.4984 25.7651 19.5802 25.6767 19.6598L25.6501 19.6797C25.5617 19.7616 25.4732 19.8434 25.3892 19.9296C25.2212 20.0977 25.0597 20.2746 24.9072 20.4581C24.7546 20.6416 24.6109 20.8318 24.4649 21.0286C24.4561 21.0444 24.4458 21.0592 24.434 21.0728L24.2615 21.3404C24.1355 21.546 24.0183 21.7583 23.9099 21.975C23.8767 22.0436 23.8436 22.1121 23.8126 22.1807C23.7507 22.3178 23.691 22.4593 23.6357 22.6008L23.5561 22.8219L23.4964 22.9966L23.4411 23.1713C23.4058 23.2907 23.3726 23.4079 23.3438 23.5295C23.3151 23.6512 23.2886 23.7661 23.2642 23.8855C23.2532 23.9497 23.2421 24.0138 23.2289 24.0779C23.209 24.2018 23.1891 24.3256 23.1736 24.4516L23.1537 24.6396C23.1537 24.7347 23.1382 24.8298 23.1316 24.927C23.1249 25.0243 23.1316 25.2145 23.1316 25.2145C23.1316 25.2145 23.2642 25.2344 23.1316 25.2145C22.3895 24.8513 21.5751 24.6601 20.7489 24.6551C19.9228 24.6501 19.1061 24.8315 18.3598 25.1858C18.3598 25.0553 18.3598 24.927 18.3399 24.7966C18.3199 24.5266 18.2852 24.2579 18.2359 23.9917C18.2359 23.9386 18.216 23.8878 18.205 23.8369L18.1652 23.6489L18.1187 23.4632C18.0878 23.3438 18.0546 23.2266 18.0192 23.1116C17.975 22.9635 17.9241 22.8175 17.8689 22.6694C17.8445 22.6052 17.8202 22.5411 17.7937 22.477C17.7671 22.4129 17.7428 22.3509 17.7141 22.289C17.6588 22.163 17.6013 22.0391 17.5394 21.9175C17.5129 21.8622 17.4841 21.8092 17.4554 21.7539C17.3979 21.6455 17.336 21.5328 17.274 21.4355L17.179 21.2785L17.0795 21.1259C17.0286 21.0485 16.9755 20.9733 16.9225 20.9048C16.8694 20.8362 16.8163 20.7566 16.7588 20.6836C16.7013 20.6107 16.6461 20.5399 16.5886 20.4625C16.5311 20.3851 16.4714 20.3232 16.4117 20.2547C16.352 20.1861 16.248 20.0756 16.1618 19.9871L16.0358 19.8611L15.8987 19.7306L15.766 19.6112C15.7218 19.5692 15.6753 19.5294 15.6289 19.4918C15.5382 19.4122 15.4432 19.337 15.3459 19.2707L15.2066 19.1645C15.0164 19.0252 14.8174 18.8925 14.614 18.7709C14.4105 18.6493 14.2624 18.5697 14.0788 18.479C14.0169 18.4481 13.9528 18.4149 13.8887 18.3862L13.7737 18.3353C13.6852 18.2955 13.5968 18.2579 13.5061 18.2225L13.2319 18.1186L13.0838 18.0677C12.9754 18.0324 12.8627 17.997 12.7587 17.966L12.4845 17.8953L12.3629 17.8665L12.1153 17.8157C12.0821 17.8157 12.0467 17.8024 12.0113 17.7957L11.7902 17.7582C11.6929 17.7427 11.5956 17.7316 11.4961 17.7206C11.3966 17.7095 11.2971 17.7007 11.1976 17.694L11.0561 17.6896H10.8659H10.4524C10.3198 17.6896 10.1893 17.6896 10.0588 17.7095C9.86205 17.725 9.66746 17.7471 9.47729 17.7758C9.34904 17.7957 9.223 17.8179 9.09696 17.8444C8.97092 17.8709 8.8471 17.8997 8.72327 17.9306C8.59944 17.9616 8.47782 17.997 8.35842 18.0346C8.23901 18.0722 8.11739 18.112 8.0002 18.1562C7.88079 18.2004 7.76581 18.2446 7.65083 18.2933C7.53584 18.3419 7.42971 18.3928 7.3103 18.4481C7.19753 18.5034 7.08918 18.5586 6.97862 18.6183C6.86806 18.678 6.7575 18.74 6.65578 18.8041C6.55185 18.8704 6.44793 18.9368 6.34621 19.0053C6.24449 19.0761 6.14278 19.1468 6.04548 19.2264C5.94598 19.3016 5.8509 19.3768 5.75581 19.4476C5.66515 19.525 5.57449 19.6023 5.48605 19.682L5.47057 19.6952C5.38212 19.777 5.29588 19.8589 5.20964 19.9451L5.07918 20.0778L4.95314 20.2127C4.88091 20.2923 4.8072 20.3741 4.73202 20.4581C4.66347 20.5399 4.59493 20.6262 4.52859 20.7102L4.36275 20.9313L4.32516 20.9844L4.30747 21.0109C4.25661 21.0861 4.20354 21.1613 4.15489 21.232C4.02222 21.4399 3.89839 21.6566 3.78341 21.8777C3.73697 21.9662 3.69496 22.0568 3.65074 22.1475C3.60651 22.2382 3.57998 22.3067 3.54681 22.3863C3.51143 22.4726 3.47605 22.5588 3.44288 22.6472C3.40971 22.7357 3.37876 22.8241 3.3478 22.9126C3.31684 23.001 3.2881 23.0939 3.26156 23.1846C3.23503 23.2752 3.22176 23.3217 3.20407 23.3902C3.14658 23.5981 3.10014 23.8082 3.06255 24.0226C2.9835 24.4739 2.94355 24.9311 2.94315 25.3892V25.4887C2.94315 25.5219 2.94315 25.555 2.94315 25.5882C2.94315 25.7209 2.9542 25.8514 2.96305 25.984C2.96305 26.0482 2.96305 26.1145 2.98074 26.1786C2.99843 26.2427 2.994 26.3069 3.00285 26.3732C3.01833 26.4993 3.03823 26.6253 3.06034 26.7513C3.06034 26.8155 3.08466 26.8796 3.09793 26.9437C3.1112 27.0078 3.12225 27.0631 3.13552 27.1206V27.1494C3.14879 27.2069 3.16206 27.2621 3.17753 27.3174C3.19301 27.3727 3.21513 27.4567 3.23282 27.5253L3.27925 27.6801C3.30136 27.7464 3.32126 27.8127 3.34559 27.8769C3.36991 27.941 3.38981 28.0073 3.41635 28.0737C3.44288 28.14 3.46278 28.1975 3.48711 28.2594C3.51143 28.3213 3.55565 28.4297 3.59324 28.5137C3.6441 28.6309 3.69938 28.7459 3.75687 28.8609C3.79225 28.9316 3.82763 29.0002 3.86522 29.0665L3.92714 29.1771C3.93146 29.1864 3.93665 29.1953 3.94262 29.2036C3.97578 29.2677 4.01337 29.3274 4.05097 29.3894C4.06644 29.4181 4.08413 29.4446 4.10182 29.4712C4.13941 29.5331 4.17701 29.595 4.21902 29.6547C4.22784 29.6692 4.23743 29.6833 4.24776 29.6967C4.28167 29.7483 4.31705 29.7992 4.3539 29.8493C4.38707 29.898 4.42024 29.9444 4.45562 29.9908L4.56176 30.1279L4.58387 30.1567L4.68559 30.2827L4.72539 30.3314C4.77182 30.3889 4.82047 30.4441 4.86912 30.4994L4.88238 30.5127C4.93766 30.5768 4.99516 30.6387 5.05265 30.6984C5.11014 30.7581 5.18974 30.8399 5.2605 30.9063L5.27819 30.9218C5.32242 30.966 5.36443 31.0058 5.40865 31.0456L5.41971 31.0566C5.44315 31.0805 5.46828 31.1027 5.49489 31.123C5.54796 31.1731 5.60324 31.2218 5.66073 31.2689C5.73149 31.3286 5.80225 31.3883 5.88185 31.4458C5.96146 31.5033 6.04548 31.5719 6.12951 31.6316C6.21354 31.6913 6.35063 31.793 6.47667 31.8682C6.52311 31.8991 6.56954 31.9301 6.61819 31.9566L6.7 32.0075L6.88796 32.1136C6.96904 32.1608 7.05085 32.205 7.1334 32.2463L7.26608 32.3126L7.46509 32.4077L7.58449 32.4608L7.81667 32.5559C7.93386 32.6023 8.05106 32.6443 8.17046 32.6863L8.39159 32.7571C8.44023 32.7726 8.48888 32.7881 8.53753 32.7991L8.71442 32.8478L8.88469 32.8898H8.91786H8.95102L9.08812 32.9185L9.27828 32.9539C9.30364 32.9606 9.32954 32.9651 9.35568 32.9672L9.53478 32.9959C9.63429 33.0114 9.73158 33.0225 9.83109 33.0335L10.0699 33.0534H10.1982H10.3286H10.6183H10.8394H10.8571C10.9057 33.0534 10.9566 33.0534 11.0052 33.0534H11.1468H11.1821C11.2441 33.0534 11.306 33.0534 11.3657 33.0379L11.5868 33.0136C11.6635 33.0048 11.7408 32.9937 11.819 32.9804C11.9738 32.9561 12.1241 32.9274 12.2745 32.8942L12.4624 32.85C12.5288 32.8323 12.5951 32.8168 12.6614 32.7969L12.8118 32.7549L12.8472 32.7438C12.9821 32.704 13.117 32.6576 13.2496 32.609L13.4243 32.5426C13.6572 32.4512 13.8853 32.3478 14.1076 32.233L14.2535 32.1579L14.2823 32.1402C14.3774 32.0893 14.4724 32.0362 14.5653 31.9787L14.6515 31.9257C14.7046 31.8947 14.7577 31.8615 14.8085 31.8262L14.9257 31.7488L14.9523 31.7289C15.0385 31.6714 15.1225 31.6117 15.2066 31.5498H15.2198L15.5029 31.3286L15.6444 31.2092L15.8213 31.0522C15.9053 30.9748 15.9893 30.8952 16.0689 30.8134C16.1485 30.7316 16.1839 30.6962 16.2392 30.6365L16.4227 30.4309C16.4647 30.3844 16.5045 30.338 16.5421 30.2893C16.5797 30.2407 16.6217 30.1943 16.6593 30.1456C16.6969 30.097 16.7345 30.0505 16.7699 30.0019C16.8451 29.9002 16.918 29.8007 16.991 29.6967L17.0618 29.5906C17.106 29.522 17.1502 29.4535 17.1922 29.3827C17.2564 29.2766 17.3183 29.1616 17.378 29.0599L17.4134 28.9958C17.4421 28.9427 17.4686 28.8896 17.4952 28.8366L17.5482 28.726L17.6013 28.6132C17.6367 28.538 17.6721 28.4606 17.703 28.3921C17.734 28.3235 17.7406 28.3014 17.7605 28.255C17.7596 28.2506 17.7596 28.2461 17.7605 28.2417C17.7615 28.2374 17.7615 28.2328 17.7605 28.2285C17.7826 28.1732 17.8047 28.1157 17.8246 28.0582C17.8445 28.0007 17.8711 27.9299 17.8954 27.8636C17.8964 27.8503 17.8964 27.837 17.8954 27.8238C17.9308 27.7243 17.9617 27.6226 17.9905 27.5186L18.0369 27.3395C18.0546 27.2643 18.0745 27.1914 18.09 27.1184C18.1055 27.0454 18.1254 26.9658 18.1386 26.8973C18.1386 26.8575 18.1541 26.8199 18.1607 26.7823C18.3198 26.8028 18.4813 26.771 18.6207 26.6916C19.2422 26.334 19.9479 26.1485 20.665 26.1543C21.3821 26.1602 22.0847 26.3571 22.7004 26.7248C22.8147 26.7929 22.9454 26.8288 23.0785 26.8287C23.1116 26.8309 23.1449 26.8309 23.178 26.8287C23.1891 26.8951 23.2023 26.9614 23.2156 27.0277C23.2289 27.0941 23.2443 27.156 23.2598 27.2179C23.2753 27.2798 23.2841 27.3263 23.2996 27.3793C23.3151 27.4324 23.3217 27.47 23.335 27.512C23.366 27.6204 23.3991 27.7331 23.4345 27.8371L23.5141 28.0715C23.5539 28.1798 23.5959 28.2926 23.6424 28.3965V28.4164C23.6578 28.4562 23.6755 28.4982 23.6954 28.538C23.7286 28.6176 23.764 28.695 23.8016 28.7724C23.8392 28.8498 23.8568 28.8852 23.8856 28.9405L23.9718 29.1041C24.0315 29.2147 24.0934 29.3252 24.1576 29.427L24.2571 29.5862C24.2902 29.637 24.3234 29.6901 24.3588 29.741C24.4273 29.8449 24.5003 29.9444 24.5799 30.0461C24.6175 30.0948 24.6529 30.1434 24.6905 30.1898C24.7281 30.2363 24.7679 30.2871 24.8077 30.3336L24.9271 30.4751L25.0509 30.6144C25.0907 30.6608 25.1327 30.7051 25.1769 30.7493C25.2212 30.7935 25.2499 30.8267 25.2875 30.8643L25.3096 30.8842C25.3715 30.9461 25.4334 31.008 25.4976 31.0655C25.5617 31.123 25.6391 31.1982 25.7187 31.2601L25.8602 31.3795C25.9376 31.4436 26.0172 31.5055 26.0968 31.5674L26.2162 31.6559C26.256 31.6869 26.298 31.7156 26.34 31.7444C26.3821 31.7731 26.4639 31.8328 26.528 31.8726L26.5479 31.8859C26.6054 31.9235 26.6629 31.9611 26.7204 31.9942C26.7357 32.0058 26.752 32.0162 26.769 32.0252L26.9238 32.1181C27.0852 32.2109 27.2533 32.2994 27.4235 32.379C27.5031 32.4188 27.5827 32.4564 27.6646 32.4918H27.68L27.9299 32.5957L28.1068 32.662C28.1849 32.69 28.2586 32.7166 28.3279 32.7416L28.4429 32.7792C28.5601 32.8168 28.6773 32.85 28.7967 32.8809L28.894 32.9053L29.0687 32.9473C29.1439 32.965 29.219 32.9804 29.2898 32.9937C29.3606 33.007 29.4402 33.0225 29.5109 33.0335C29.5817 33.0446 29.6657 33.0578 29.7431 33.0667L29.9642 33.091C30.0239 33.091 30.0858 33.1043 30.1478 33.1065H30.1831H30.3247C30.3733 33.1065 30.4264 33.1065 30.475 33.1065H30.4927H30.7138H31.0079H31.134H31.2622L31.5054 33.0866C31.6072 33.0755 31.7067 33.0645 31.8084 33.049L32.0074 33.018H32.0273H32.0804L32.2683 32.9827L32.4518 32.9429L32.6332 32.8986L32.8322 32.8433L33.1528 32.746H33.1705L33.4734 32.6355C33.5663 32.6001 33.6592 32.5625 33.7498 32.5227L33.7963 32.5028C33.8781 32.4674 33.9599 32.4276 34.0417 32.39L34.2098 32.306L34.3734 32.2198L34.6078 32.0871C34.6719 32.0495 34.7382 32.0097 34.8024 31.9677C34.9417 31.8815 35.0788 31.7886 35.2114 31.6913C35.2955 31.6316 35.3773 31.5674 35.4591 31.5055L35.6471 31.3507L35.7709 31.2446L35.793 31.2247C35.8593 31.1694 35.9235 31.1097 35.9854 31.05L36.0185 31.0191C36.0871 30.9571 36.1534 30.8908 36.2175 30.8223C36.3812 30.6564 36.5382 30.4817 36.6863 30.2982C36.7527 30.2186 36.8168 30.1346 36.8787 30.0527C36.9406 29.9709 37.0246 29.8515 37.0998 29.7498C37.175 29.6481 37.2104 29.5817 37.2635 29.4955C37.3165 29.4093 37.3784 29.3031 37.4337 29.2058C37.489 29.1085 37.5421 29.009 37.5929 28.9073C37.7986 28.5017 37.9673 28.0784 38.0971 27.6425C38.1303 27.5319 38.159 27.4213 38.1877 27.3086C38.2069 27.2334 38.2246 27.1597 38.2408 27.0874C38.2585 27.0123 38.274 26.9349 38.2872 26.8663L38.3271 26.6452C38.3271 26.6452 38.3271 26.6452 38.3271 26.6341C38.3492 26.486 38.3669 26.3356 38.3823 26.1919V26.0924C38.3823 26.0194 38.3956 25.9464 38.4 25.8713C38.4044 25.7961 38.4 25.7054 38.4 25.6236C38.4 25.5418 38.4 25.4622 38.4 25.3826C38.3993 23.3654 37.6089 21.4286 36.1979 19.987C34.7869 18.5454 32.8676 17.7136 30.8509 17.6697ZM10.6514 31.6338C9.41597 31.6338 8.20824 31.2674 7.18097 30.581C6.15371 29.8946 5.35306 28.919 4.88026 27.7775C4.40746 26.6361 4.28376 25.3801 4.52479 24.1683C4.76582 22.9565 5.36076 21.8435 6.23437 20.9698C7.10799 20.0962 8.22104 19.5013 9.43278 19.2602C10.6445 19.0192 11.9005 19.1429 13.042 19.6157C14.1834 20.0885 15.159 20.8892 15.8454 21.9165C16.5318 22.9437 16.8981 24.1515 16.8981 25.387C16.8964 27.0432 16.2377 28.6311 15.0666 29.8022C13.8955 30.9733 12.3076 31.632 10.6514 31.6338V31.6338ZM30.8509 31.6338C29.6154 31.6338 28.4077 31.2674 27.3804 30.581C26.3532 29.8946 25.5525 28.919 25.0797 27.7775C24.6069 26.6361 24.4832 25.3801 24.7243 24.1683C24.9653 22.9565 25.5602 21.8435 26.4338 20.9698C27.3075 20.0962 28.4205 19.5013 29.6323 19.2602C30.844 19.0192 32.1 19.1429 33.2414 19.6157C34.3829 20.0885 35.3585 20.8892 36.0449 21.9165C36.7313 22.9437 37.0976 24.1515 37.0976 25.387C37.0959 27.0432 36.4372 28.6311 35.2661 29.8022C34.095 30.9733 32.5071 31.632 30.8509 31.6338Z" fill="white"/>
<path d="M16.8273 33.6106C17.8616 34.2522 18.7144 35.1478 19.3047 36.2122C19.8949 37.2767 20.2029 38.4744 20.1994 39.6916C20.1994 39.8382 20.2576 39.9788 20.3613 40.0825C20.465 40.1861 20.6056 40.2444 20.7522 40.2444C20.8988 40.2444 21.0394 40.1861 21.1431 40.0825C21.2467 39.9788 21.305 39.8382 21.305 39.6916C21.3012 38.4746 21.6089 37.277 22.1987 36.2126C22.7886 35.1482 23.641 34.2525 24.6749 33.6106C24.7476 33.5642 24.8084 33.5014 24.8524 33.4272C24.8964 33.353 24.9224 33.2695 24.9282 33.1835C24.934 33.0974 24.9195 33.0112 24.8859 32.9317C24.8522 32.8523 24.8004 32.7819 24.7346 32.7261C24.0744 32.175 23.4913 31.5376 23.001 30.8311C22.6891 30.3796 22.4162 29.9025 22.185 29.4048C22.0585 29.1321 21.8575 28.9006 21.6051 28.7371C21.3528 28.5736 21.0595 28.4847 20.7588 28.4805H20.7411C20.4403 28.4849 20.1468 28.5745 19.8948 28.7389C19.6427 28.9033 19.4425 29.1357 19.3171 29.4093C19.0868 29.9073 18.8138 30.3845 18.5012 30.8355C18.0091 31.54 17.4254 32.1758 16.7654 32.7261C16.6989 32.782 16.6464 32.8528 16.6122 32.9327C16.578 33.0125 16.5631 33.0993 16.5686 33.1861C16.5754 33.2722 16.6023 33.3555 16.6473 33.4292C16.6922 33.503 16.7539 33.5651 16.8273 33.6106V33.6106ZM19.4056 31.4547C19.7554 30.9525 20.0603 30.4205 20.3166 29.8648C20.3538 29.782 20.4136 29.7114 20.4891 29.6609C20.5645 29.6105 20.6526 29.5823 20.7433 29.5795H20.7566C20.8477 29.5819 20.9363 29.6099 21.0122 29.6604C21.0881 29.7108 21.1482 29.7817 21.1856 29.8648C21.4436 30.4196 21.7484 30.9515 22.0966 31.4547C22.5056 32.0442 22.9731 32.5909 23.4919 33.0866C22.2568 34.0124 21.3067 35.2667 20.75 36.7064C20.195 35.2651 19.2446 34.0097 18.0081 33.0843C18.5274 32.5894 18.9956 32.0434 19.4056 31.4547V31.4547Z" fill="white"/>
<path d="M62.7984 31.8417C62.7984 30.7361 63.9371 29.7322 65.1754 29.7322C66.2124 29.7322 66.8802 30.3358 66.8802 31.3065C66.8522 31.8974 66.5958 32.4543 66.1651 32.8598C65.7345 33.2653 65.1632 33.4877 64.5717 33.4802C63.5767 33.4868 62.7984 32.8854 62.7984 31.8417ZM165.99 46.0952C165.99 47.2008 164.283 49.3744 162.041 49.3744C159.865 49.3744 158.503 48.103 158.503 45.9625C158.503 43.2847 161.482 40.273 161.482 38.4444C161.482 37.8761 160.911 37.4736 160.31 37.1729C159.234 39.3326 158.039 41.4313 156.732 43.4594V43.4594V43.4705C156.646 43.6098 156.562 43.7402 156.476 43.8596C154.47 46.8359 151.901 49.3877 149.146 49.3877C147.306 49.3877 145.767 48.3838 145.499 46.5131C144.027 48.218 142.286 49.3877 140.48 49.3877C138.49 49.3877 136.964 48.4678 136.385 46.7475C134.837 48.3152 133.099 49.3877 131.312 49.3877C129.251 49.3877 127.872 48.4545 127.553 46.5728C126.384 47.349 125.009 47.7565 123.606 47.7425C122.861 47.7461 122.118 47.6562 121.395 47.475C119.922 48.6447 118.182 49.3811 116.442 49.3811C114.03 49.3811 112.152 48.3528 111.451 46.3782C109.273 48.3495 106.429 49.4224 103.491 49.3811C100.3 49.3811 98.2283 48.3064 97.5207 46.2455C95.126 48.2157 92.0171 49.3811 89.0939 49.3811C86.5643 49.3811 84.8749 48.5607 84.0745 47.4086C81.5626 49.4562 78.4912 50.6857 75.2076 50.6857C71.1788 50.6857 67.9106 49.0472 66.7719 46.1328C65.0958 48.0234 63.1654 49.3811 61.1554 49.3811C58.8469 49.3811 57.3411 48.1428 57.3411 45.6662C57.3411 43.4262 58.6789 40.2133 59.884 37.9048C61.0206 35.729 61.8564 35.059 62.7276 35.059C63.4971 35.059 63.999 35.5278 63.999 36.1978C63.999 36.7329 63.5568 37.6704 62.292 39.7114C61.1554 42.0862 60.4191 44.094 60.4191 45.7348C60.4191 46.9377 60.921 47.4064 61.5557 47.4064C62.962 47.4064 64.7685 45.266 66.2744 42.9243C66.3274 42.8403 66.3783 42.7585 66.4291 42.6811C67.0151 39.0303 70.5022 35.9722 74.4049 35.0258C73.1666 34.0219 72.3971 32.4497 72.3971 30.5768C72.3971 26.0593 77.2839 22.7801 82.3011 22.7801C82.9965 22.7814 83.6908 22.8376 84.3774 22.9481C86.3166 21.7762 88.4924 21.0399 90.0646 21.0399C90.9336 21.0399 91.4024 21.4423 91.4024 22.1101C91.4024 22.5789 91.1016 22.8796 90.1309 23.1471C89.1769 23.4265 88.2479 23.7852 87.3537 24.2196C87.9363 24.6396 88.4104 25.1925 88.7365 25.8324C89.0626 26.4723 89.2314 27.1808 89.2288 27.8991C89.2393 28.5593 89.1182 29.2151 88.8724 29.828C88.6266 30.4409 88.2611 30.9987 87.7973 31.4687C87.3335 31.9387 86.7806 32.3116 86.171 32.5654C85.5614 32.8193 84.9073 32.9491 84.2469 32.9473C81.7041 32.9473 80.0302 31.4414 80.0302 28.9317C80.0302 27.6602 80.6007 26.4551 81.5028 25.3517C78.3585 25.6525 75.7537 27.762 75.7537 30.6056C75.7537 32.8168 77.5227 34.3536 78.9998 34.3536C79.6631 34.2851 80.2712 34.1856 80.8063 34.1856C82.0446 34.1856 82.6814 34.6875 82.6814 35.5123C82.6814 36.5162 81.9783 37.0867 80.5388 37.0867C79.9373 37.0867 79.2673 36.8855 78.2634 36.8855C74.1152 36.8855 69.7658 40.0298 69.7658 43.7402C69.7658 46.4158 72.0411 48.0234 75.4198 48.0234C78.3408 48.0234 81.9385 46.6414 84.2381 44.0211C84.4371 43.6938 84.6803 43.3267 84.9567 42.9154C86.3277 40.8391 87.4333 38.6655 88.7047 35.855V35.3862C88.7047 33.175 90.142 31.6382 91.3803 31.6382C92.519 31.6382 93.1205 32.2397 93.1205 33.0777C93.1205 33.6792 92.6517 34.7162 91.7495 36.2553C92.519 38.6655 94.8275 41.2416 94.8275 44.2864C94.8248 45.001 94.6407 45.7033 94.2924 46.3274C95.5058 45.4427 96.5594 44.3577 97.408 43.1189C98.277 38.5925 103.135 35.0656 106.808 35.0656C109.284 35.0656 110.788 36.2707 110.788 37.7766C110.788 39.6849 109.18 41.1221 108.044 41.1221C107.007 41.1221 106.403 40.5207 106.403 39.6849C106.403 39.2161 106.739 38.4466 107.476 37.3078C107.225 37.1879 106.948 37.131 106.671 37.142C104.395 37.142 100.782 40.6556 100.782 44.5694C100.782 46.3097 101.987 47.1455 103.86 47.1455C106.956 47.1455 109.554 45.6905 111.294 43.0702C112.115 38.6588 116.488 35.0656 120.289 35.0656C123.569 35.0656 125.51 36.7727 125.51 39.7092C125.51 41.7833 124.573 43.926 123.168 45.6994C123.423 45.741 123.68 45.7631 123.938 45.7657C125.265 45.7657 126.591 44.9763 127.867 43.099C128.856 39.3819 131.423 33.9467 133.406 30.139C134.344 28.3325 135.447 27.2954 136.15 27.2954C136.953 27.2954 137.477 27.7973 137.477 28.5337C137.477 29.8383 135.536 33.1772 133.395 36.8302H133.362C131.754 40.3681 130.518 43.7248 130.518 45.7325C130.518 46.8382 131.02 47.3711 131.688 47.3711C133.079 47.3711 134.897 45.3058 136.394 42.9906C137.519 38.7893 141.778 35.0568 145.742 35.0568C147.147 35.0568 148.15 35.6273 148.787 36.7638C149.23 35.7268 150.114 35.0568 150.928 35.0568C151.741 35.0568 152.199 35.5256 152.199 36.1956C152.199 36.6643 151.799 37.4338 150.828 39.006C149.557 41.8165 148.553 44.1935 148.553 45.8984C148.553 46.9354 148.995 47.4042 149.524 47.4042C150.928 47.4042 152.701 45.266 154.205 42.9243L154.278 42.8093L154.371 42.6656C155.78 40.4665 157.032 38.1707 158.119 35.7953V35.3288C158.119 32.9849 159.693 31.4459 160.829 31.4459C161.833 31.4459 162.402 32.0495 162.402 32.8522C162.402 33.3541 162.068 34.2563 161.433 35.4283C162.804 36.1978 164.577 36.8324 164.577 38.3736C164.577 40.6136 161.533 43.4262 161.533 46.2035C161.533 46.9377 161.833 47.3733 162.368 47.3733C162.904 47.3733 163.474 46.805 163.941 46.0686C164.31 45.4672 164.712 45.266 165.113 45.266C165.227 45.259 165.341 45.2755 165.448 45.3144C165.555 45.3533 165.654 45.4137 165.737 45.4921C165.82 45.5704 165.886 45.6649 165.931 45.7697C165.976 45.8746 165.999 45.9876 165.999 46.1018L165.99 46.0952ZM82.9843 28.9361C82.9843 29.9068 83.5526 30.442 84.289 30.442C85.326 30.442 86.164 29.2037 86.164 27.9654C86.1708 27.5132 86.0441 27.069 85.7999 26.6883C85.5557 26.3077 85.2047 26.0074 84.7909 25.8249C83.7207 26.6939 82.9843 27.7664 82.9843 28.9361ZM91.6832 44.4301C91.6832 42.3538 90.8142 40.8148 90.0115 39.1077C89.3592 40.3814 88.6229 41.6573 87.8003 42.953C87.7767 43.1342 87.7116 43.3075 87.6102 43.4594C87.389 43.7977 87.1679 44.1228 86.9247 44.4456C86.7636 44.7742 86.6775 45.1345 86.6726 45.5004C86.6726 46.0686 87.336 47.3069 88.9833 47.3069C90.6307 47.3069 91.6832 45.9935 91.6832 44.4301ZM122.134 39.6451C122.134 38.0043 121.362 37.268 120.225 37.268C117.917 37.268 114.638 40.9165 114.638 44.6291C114.638 46.3362 115.608 47.172 116.811 47.172C117.649 47.172 118.485 46.7718 119.255 46.135C119.169 45.9936 119.123 45.8316 119.122 45.6662C119.122 44.8304 119.858 44.2289 120.827 44.1604C121.653 42.7968 122.104 41.2391 122.134 39.6451V39.6451ZM147.83 38.7738C147.695 37.7699 146.959 37.1685 145.687 37.1685C143.078 37.1685 139.598 41.4185 139.598 45.2328C139.598 46.5706 140.261 47.2406 141.17 47.2406C142.51 47.2406 143.881 45.8343 145.15 43.9614C146.221 42.3299 147.119 40.5913 147.83 38.7738V38.7738Z" fill="white"/>
<path d="M130.294 62.3986C130.302 62.9463 130.216 63.4913 130.042 64.0107C129.891 64.4659 129.652 64.8872 129.339 65.2512C129.039 65.5937 128.668 65.8675 128.253 66.0539C127.819 66.2448 127.349 66.3412 126.875 66.3369C126.409 66.3408 125.947 66.2443 125.522 66.0539C125.109 65.8661 124.742 65.5925 124.444 65.2512C124.131 64.8873 123.891 64.466 123.739 64.0107C123.565 63.4912 123.481 62.9462 123.489 62.3986C123.482 61.8489 123.566 61.3019 123.739 60.78C123.889 60.3237 124.129 59.902 124.444 59.5395C124.744 59.2021 125.111 58.9316 125.522 58.7456C125.947 58.5552 126.409 58.4587 126.875 58.4626C127.349 58.4583 127.819 58.5548 128.253 58.7456C128.667 58.9303 129.037 59.2009 129.339 59.5395C129.653 59.9022 129.893 60.3239 130.042 60.78C130.216 61.3017 130.301 61.8488 130.294 62.3986ZM128.916 62.3986C128.916 61.5466 128.733 60.8744 128.366 60.382C128.197 60.1465 127.972 59.9562 127.712 59.8278C127.452 59.6994 127.165 59.6369 126.875 59.6456C126.589 59.6372 126.305 59.7001 126.049 59.8286C125.793 59.9571 125.573 60.1473 125.409 60.382C125.046 60.8758 124.865 61.548 124.865 62.3986C124.865 63.2492 125.046 63.9163 125.409 64.3998C125.572 64.6352 125.792 64.826 126.048 64.955C126.304 65.084 126.589 65.147 126.875 65.1384C127.165 65.1469 127.453 65.084 127.713 64.9552C127.973 64.8264 128.197 64.6357 128.366 64.3998C128.731 63.9089 128.914 63.2419 128.914 62.3986H128.916Z" fill="white"/>
<path d="M131.735 58.8517C132.214 58.7345 132.698 58.6422 133.186 58.5753C133.633 58.5131 134.085 58.4806 134.537 58.478C135.544 58.478 136.303 58.7375 136.814 59.2564C137.327 59.7738 137.584 60.6074 137.584 61.7507V66.1576H136.257V61.9939C136.267 61.5955 136.223 61.1975 136.127 60.8109C136.062 60.5516 135.938 60.3108 135.764 60.1077C135.61 59.9415 135.414 59.8206 135.196 59.7583C134.961 59.6921 134.719 59.6593 134.475 59.661C134.242 59.6622 134.01 59.6763 133.778 59.7031C133.535 59.7318 133.301 59.7672 133.073 59.8092V66.1598H131.729L131.735 58.8517Z" fill="white"/>
<path d="M142.623 66.3365C142.22 66.3484 141.818 66.2823 141.44 66.1419C141.141 66.0227 140.882 65.8201 140.695 65.5582C140.498 65.2682 140.365 64.9395 140.305 64.5941C140.226 64.1564 140.188 63.7122 140.193 63.2674V56.1452H138.021V55.0109H141.517V63.2585C141.511 63.5675 141.536 63.8764 141.59 64.1806C141.624 64.3852 141.7 64.5808 141.811 64.7555C141.903 64.8937 142.036 64.999 142.192 65.0562C142.364 65.1133 142.545 65.1409 142.727 65.138C143.026 65.1404 143.323 65.1017 143.612 65.023C143.831 64.9685 144.043 64.8868 144.242 64.7798L144.436 65.9141C144.372 65.9473 144.279 65.9871 144.162 66.0358C144.024 66.0904 143.883 66.1369 143.74 66.1751C143.578 66.2171 143.401 66.2547 143.213 66.2878C143.018 66.32 142.821 66.3363 142.623 66.3365V66.3365Z" fill="white"/>
<path d="M146.457 59.7582H144.288V58.6416H147.785V63.2585C147.785 64.0037 147.889 64.5034 148.093 64.7555C148.206 64.8866 148.349 64.9894 148.51 65.0558C148.67 65.1222 148.844 65.1503 149.017 65.138C149.31 65.14 149.601 65.1013 149.884 65.023C150.101 64.9678 150.31 64.8861 150.507 64.7798L150.702 65.9141C150.638 65.9473 150.545 65.9871 150.425 66.0357C150.291 66.0898 150.154 66.1363 150.014 66.175C149.857 66.217 149.682 66.2546 149.494 66.2878C149.299 66.32 149.102 66.3363 148.904 66.3364C148.501 66.3483 148.099 66.2823 147.721 66.1419C147.421 66.0212 147.159 65.819 146.967 65.5581C146.766 65.2696 146.631 64.9405 146.572 64.594C146.49 64.1566 146.451 63.7123 146.457 63.2673V59.7582ZM146.797 57.4741C146.663 57.476 146.529 57.4511 146.404 57.401C146.279 57.3509 146.166 57.2765 146.07 57.1822C145.87 56.9658 145.76 56.6825 145.76 56.3884C145.76 56.0943 145.87 55.8109 146.07 55.5946C146.268 55.407 146.53 55.3025 146.803 55.3025C147.075 55.3025 147.338 55.407 147.536 55.5946C147.728 55.8143 147.834 56.0964 147.834 56.3884C147.834 56.6804 147.728 56.9625 147.536 57.1822C147.438 57.2777 147.323 57.3527 147.196 57.4028C147.069 57.453 146.933 57.4772 146.797 57.4741Z" fill="white"/>
<path d="M152.033 58.8517C152.512 58.7344 152.996 58.6422 153.484 58.5753C153.933 58.513 154.385 58.4805 154.838 58.478C155.842 58.478 156.601 58.7375 157.114 59.2564C157.627 59.7738 157.884 60.6074 157.884 61.7506V66.1575H156.557V61.9938C156.567 61.5955 156.524 61.1976 156.428 60.8108C156.364 60.551 156.239 60.3101 156.063 60.1077C155.909 59.9414 155.713 59.8206 155.495 59.7583C155.26 59.6919 155.018 59.6591 154.774 59.661C154.544 59.6619 154.314 59.6752 154.086 59.7008C153.843 59.7296 153.608 59.7649 153.38 59.807V66.1575H152.036L152.033 58.8517Z" fill="white"/>
<path d="M162.825 58.4626C163.841 58.4626 164.623 58.7788 165.173 59.4112C165.723 60.0436 165.999 61.0018 166 62.2857V62.7567H160.621C160.676 63.5328 160.933 64.1254 161.39 64.5257C161.848 64.9259 162.496 65.1337 163.327 65.1337C163.735 65.1397 164.142 65.1012 164.541 65.0188C164.804 64.9679 165.06 64.8863 165.304 64.7755L165.48 65.9099C165.197 66.0361 164.901 66.1289 164.596 66.1863C164.134 66.2886 163.661 66.339 163.188 66.3366C162.604 66.3486 162.024 66.2465 161.479 66.0359C161.016 65.8566 160.599 65.5772 160.256 65.2178C159.926 64.8633 159.677 64.4406 159.527 63.9795C159.361 63.4751 159.279 62.947 159.284 62.4162C159.27 61.8179 159.375 61.2229 159.591 60.6649C159.773 60.2033 160.05 59.7847 160.402 59.4355C160.726 59.1169 161.112 58.8684 161.536 58.7058C161.947 58.5461 162.384 58.4636 162.825 58.4626V58.4626ZM164.638 61.671C164.668 61.1209 164.489 60.5799 164.136 60.1563C163.97 59.9715 163.765 59.8255 163.535 59.7289C163.306 59.6322 163.058 59.5871 162.81 59.5969C162.517 59.5927 162.227 59.6531 161.961 59.7738C161.712 59.8871 161.487 60.047 161.298 60.2448C161.113 60.4386 160.963 60.663 160.855 60.9082C160.746 61.1507 160.671 61.4075 160.634 61.671H164.638Z" fill="white"/>
<path d="M26.3909 78.4627C27.128 78.4627 27.4965 78.2114 27.4965 77.7088C27.5004 77.5706 27.4667 77.4338 27.3992 77.3131C27.3306 77.202 27.2404 77.1057 27.1339 77.0301C27.0157 76.9468 26.888 76.8778 26.7535 76.8245C26.6098 76.7649 26.4594 76.7074 26.3113 76.6499C26.1328 76.5874 25.9585 76.5136 25.7894 76.4288C25.6338 76.3552 25.4894 76.2599 25.3604 76.1459C25.2392 76.0379 25.1413 75.9062 25.073 75.759C24.9998 75.5872 24.9643 75.4018 24.969 75.2151C24.9586 75.021 24.993 74.827 25.0697 74.6484C25.1464 74.4697 25.2633 74.3111 25.4113 74.1849C25.7686 73.9201 26.2078 73.7895 26.6518 73.8158C26.932 73.8121 27.2115 73.8448 27.4832 73.913C27.6756 73.9582 27.8598 74.0327 28.0294 74.1341L27.8083 74.7067C27.6683 74.6284 27.52 74.5661 27.366 74.521C27.1379 74.4574 26.9019 74.4269 26.6651 74.4303C26.5384 74.4296 26.4122 74.4445 26.2892 74.4745C26.1806 74.4999 26.0773 74.5441 25.984 74.605C25.898 74.661 25.8267 74.7368 25.7761 74.8261C25.7237 74.923 25.6977 75.032 25.701 75.1422C25.6971 75.2607 25.7245 75.3781 25.7806 75.4826C25.8368 75.578 25.912 75.6608 26.0017 75.7258C26.1075 75.8003 26.22 75.8647 26.3378 75.9182C26.4661 75.9756 26.6076 76.0331 26.7624 76.0906C26.9835 76.179 27.1803 76.2652 27.3616 76.3515C27.5329 76.4328 27.6916 76.5386 27.8326 76.6654C27.9672 76.7876 28.0723 76.9388 28.14 77.1075C28.2184 77.2996 28.2561 77.5059 28.2505 77.7133C28.2572 77.9092 28.215 78.1037 28.1277 78.2793C28.0405 78.4549 27.911 78.606 27.7508 78.7191C27.3469 78.9794 26.8705 79.1041 26.3909 79.0751C26.208 79.0755 26.0254 79.0614 25.8447 79.0331C25.6957 79.01 25.5481 78.979 25.4024 78.9402C25.2872 78.9087 25.1742 78.8695 25.0641 78.823C24.9712 78.7833 24.8961 78.7479 24.843 78.7191L25.0641 78.1377C25.2257 78.227 25.3952 78.301 25.5705 78.3588C25.8367 78.4367 26.1136 78.4718 26.3909 78.4627Z" fill="white"/>
<path d="M32.3676 77.0764C32.3713 77.3531 32.3271 77.6284 32.2372 77.8901C32.1568 78.12 32.0321 78.3318 31.8701 78.5137C31.7145 78.6872 31.5228 78.8245 31.3085 78.9161C31.0844 79.0123 30.8426 79.0605 30.5987 79.0576C30.3542 79.0602 30.1117 79.012 29.8867 78.9161C29.6727 78.824 29.4812 78.6867 29.3251 78.5137C29.1639 78.3313 29.0393 78.1196 28.958 77.8901C28.7841 77.3639 28.7841 76.7956 28.958 76.2693C29.0382 76.0381 29.1629 75.8247 29.3251 75.6414C29.4812 75.4684 29.6727 75.3311 29.8867 75.2389C30.1117 75.143 30.3542 75.0949 30.5987 75.0974C30.8426 75.0945 31.0844 75.1427 31.3085 75.2389C31.5228 75.3305 31.7145 75.4679 31.8701 75.6414C32.033 75.8242 32.1578 76.0377 32.2372 76.2693C32.3264 76.5289 32.3706 76.8019 32.3676 77.0764V77.0764ZM31.6645 77.0764C31.684 76.717 31.5829 76.3613 31.377 76.0659C31.2834 75.9492 31.1647 75.8551 31.0298 75.7904C30.8949 75.7257 30.7472 75.6921 30.5976 75.6921C30.448 75.6921 30.3003 75.7257 30.1654 75.7904C30.0305 75.8551 29.9118 75.9492 29.8182 76.0659C29.6317 76.3704 29.533 76.7205 29.533 77.0775C29.533 77.4346 29.6317 77.7847 29.8182 78.0891C29.9118 78.2058 30.0305 78.3 30.1654 78.3647C30.3003 78.4294 30.448 78.463 30.5976 78.463C30.7472 78.463 30.8949 78.4294 31.0298 78.3647C31.1647 78.3 31.2834 78.2058 31.377 78.0891C31.5832 77.7931 31.6844 77.4366 31.6645 77.0764V77.0764Z" fill="white"/>
<path d="M34.4505 79.0354C34.1328 79.0577 33.818 78.9625 33.566 78.7679C33.4717 78.6601 33.4001 78.5345 33.3553 78.3986C33.3105 78.2626 33.2934 78.119 33.305 77.9764V73.4508L33.9684 73.3358V77.868C33.9672 77.961 33.9768 78.0537 33.9972 78.1444C34.0129 78.2093 34.0457 78.2689 34.0922 78.3168C34.1413 78.364 34.2013 78.3982 34.2669 78.4163C34.3547 78.4404 34.4441 78.4581 34.5345 78.4694L34.4505 79.0354Z" fill="white"/>
<path d="M38.3003 78.854C38.1455 78.8938 37.9421 78.9336 37.6878 78.9778C37.3954 79.0243 37.0995 79.0457 36.8034 79.0419C36.5528 79.0492 36.3032 79.0063 36.0694 78.9159C35.8819 78.8397 35.7174 78.7163 35.5918 78.5577C35.4671 78.3954 35.3782 78.2085 35.3309 78.0093C35.2757 77.7799 35.2489 77.5444 35.2513 77.3084V75.1924H35.9256V77.1713C35.898 77.5148 35.9751 77.8587 36.1467 78.1575C36.2354 78.2627 36.3484 78.3448 36.4759 78.3964C36.6035 78.448 36.7417 78.4677 36.8786 78.4538H37.0997L37.3208 78.4361L37.5065 78.414C37.5471 78.4101 37.5871 78.402 37.6259 78.3896V75.2056H38.3003V78.854Z" fill="white"/>
<path d="M41.1882 79.0515L41.1086 79.2328C41.2251 79.2826 41.3287 79.3582 41.4115 79.4539C41.4822 79.557 41.5157 79.6809 41.5066 79.8055C41.5045 79.8653 41.4925 79.9243 41.4712 79.9802C41.4436 80.0463 41.4012 80.1053 41.3474 80.1526C41.2799 80.2118 41.2008 80.2562 41.1152 80.2831C41.0004 80.3205 40.8799 80.3377 40.7592 80.3339C40.6436 80.3352 40.5281 80.3256 40.4142 80.3052C40.3293 80.2908 40.2457 80.2694 40.1644 80.2411L40.244 79.8254C40.3037 79.8431 40.3634 79.8608 40.4297 79.8763C40.5026 79.8903 40.5767 79.897 40.6509 79.8962C40.8255 79.8962 40.9118 79.8409 40.9118 79.7303C40.9111 79.7029 40.9034 79.6762 40.8894 79.6526C40.8755 79.629 40.8558 79.6093 40.8322 79.5955C40.7622 79.551 40.6881 79.5133 40.6111 79.4827L40.5602 79.4628C40.5801 79.4031 40.6066 79.3346 40.6398 79.2527C40.6722 79.1733 40.7092 79.0958 40.7504 79.0206C40.5213 78.99 40.3004 78.9149 40.1002 78.7995C39.9171 78.6937 39.7575 78.5514 39.6315 78.3816C39.5031 78.2057 39.4079 78.0079 39.3506 77.7979C39.2848 77.5633 39.2528 77.3206 39.2555 77.0771C39.2524 76.8058 39.2951 76.536 39.3816 76.2789C39.461 76.0487 39.5833 75.8356 39.742 75.6509C39.8984 75.4727 40.0926 75.3314 40.3103 75.2375C40.5478 75.1359 40.8039 75.0854 41.0622 75.0893C41.2319 75.0898 41.4013 75.1046 41.5685 75.1335C41.7351 75.1617 41.8982 75.2077 42.055 75.2706L41.9024 75.8433C41.7901 75.7915 41.6721 75.7529 41.5508 75.7283C41.4113 75.6984 41.269 75.6836 41.1263 75.6841C40.9643 75.6743 40.8022 75.7012 40.6521 75.7629C40.502 75.8245 40.3678 75.9193 40.2595 76.0401C40.0389 76.3389 39.9322 76.7066 39.9587 77.0771C39.9564 77.265 39.9795 77.4524 40.0273 77.6342C40.0677 77.7961 40.1432 77.947 40.2484 78.0765C40.3494 78.2002 40.4803 78.2961 40.6287 78.3551C40.8088 78.4261 41.0013 78.46 41.1948 78.4545C41.3577 78.4559 41.5201 78.4389 41.6791 78.4037C41.7963 78.3777 41.911 78.3414 42.0218 78.2954L42.1147 78.8592C42.0647 78.8835 42.0129 78.9041 41.9599 78.9211C41.8876 78.9452 41.8137 78.9644 41.7388 78.9786C41.6548 78.9963 41.5685 79.0117 41.4734 79.0228C41.3784 79.0338 41.2789 79.0449 41.1882 79.0515Z" fill="white"/>
<path d="M46.0684 77.0764C46.0731 77.3532 46.0289 77.6287 45.9379 77.8902C45.8583 78.1199 45.7343 78.3317 45.5731 78.5137C45.4162 78.6868 45.2239 78.824 45.0092 78.9162C44.7851 79.0124 44.5433 79.0606 44.2994 79.0577C44.0548 79.0602 43.8124 79.0121 43.5874 78.9162C43.3734 78.824 43.1818 78.6867 43.0257 78.5137C42.8645 78.3317 42.7405 78.1199 42.6609 77.8902C42.487 77.3639 42.487 76.7956 42.6609 76.2693C42.7395 76.0378 42.8635 75.8243 43.0257 75.6413C43.1818 75.4683 43.3734 75.3311 43.5874 75.2389C43.8124 75.143 44.0548 75.0948 44.2994 75.0974C44.5433 75.0945 44.7851 75.1427 45.0092 75.2389C45.2239 75.331 45.4162 75.4683 45.5731 75.6413C45.7353 75.8243 45.8593 76.0378 45.9379 76.2693C46.0282 76.5287 46.0724 76.8018 46.0684 77.0764V77.0764ZM45.4957 73.806C45.4713 73.8635 45.4382 73.9321 45.3984 74.0095C45.3566 74.0901 45.3038 74.1646 45.2414 74.2306C45.1763 74.2965 45.1018 74.3524 45.0203 74.3964C44.9348 74.4428 44.8389 74.4664 44.7416 74.465C44.6485 74.4665 44.556 74.4492 44.4697 74.4141C44.3856 74.3809 44.3038 74.3456 44.2264 74.3058C44.149 74.266 44.0739 74.2394 44.0164 74.2195C43.9631 74.2007 43.907 74.191 43.8505 74.1908C43.7664 74.1945 43.687 74.231 43.6294 74.2925C43.5623 74.3561 43.507 74.4309 43.4658 74.5136L43.1186 74.3389C43.1437 74.2689 43.1755 74.2015 43.2137 74.1377C43.2556 74.0566 43.3093 73.9821 43.3729 73.9166C43.4369 73.8488 43.5116 73.792 43.594 73.7485C43.6798 73.7031 43.7755 73.6796 43.8726 73.68C43.9657 73.6795 44.058 73.6968 44.1446 73.7308C44.2286 73.764 44.3105 73.8016 44.3879 73.8392C44.4597 73.8732 44.5335 73.9027 44.609 73.9276C44.6632 73.9456 44.7199 73.9553 44.777 73.9564C44.861 73.9519 44.9401 73.9156 44.9981 73.8547C45.0639 73.7899 45.1191 73.7153 45.1618 73.6335L45.4957 73.806ZM45.3652 77.0764C45.3847 76.7169 45.2836 76.3613 45.0777 76.0659C44.9841 75.9492 44.8654 75.855 44.7305 75.7903C44.5956 75.7256 44.4479 75.692 44.2983 75.692C44.1487 75.692 44.001 75.7256 43.8661 75.7903C43.7312 75.855 43.6125 75.9492 43.5188 76.0659C43.3324 76.3704 43.2337 76.7205 43.2337 77.0775C43.2337 77.4346 43.3324 77.7847 43.5188 78.0892C43.6125 78.2058 43.7312 78.3 43.8661 78.3647C44.001 78.4294 44.1487 78.463 44.2983 78.463C44.4479 78.463 44.5956 78.4294 44.7305 78.3647C44.8654 78.3 44.9841 78.2058 45.0777 78.0892C45.2839 77.7931 45.3851 77.4366 45.3652 77.0764V77.0764Z" fill="white"/>
<path d="M46.8091 77.0854C46.8032 76.788 46.8519 76.492 46.9529 76.2121C47.038 75.9813 47.1689 75.77 47.3376 75.5909C47.4925 75.4297 47.6803 75.3038 47.8882 75.2216C48.0915 75.1405 48.3083 75.0985 48.5272 75.0978C48.7451 75.0841 48.9632 75.1198 49.1653 75.2021C49.3675 75.2844 49.5484 75.4112 49.6947 75.5732C49.966 75.8886 50.1016 76.3706 50.1016 77.0191V77.1319C50.104 77.1739 50.104 77.2159 50.1016 77.2579H47.5123C47.5174 77.5837 47.6381 77.8971 47.8528 78.1423C47.9792 78.2529 48.1265 78.337 48.2861 78.3894C48.4456 78.4418 48.6141 78.4616 48.7815 78.4474C48.983 78.4504 49.1841 78.4296 49.3807 78.3855C49.5073 78.3597 49.6316 78.3234 49.7522 78.2771L49.8473 78.8431C49.7054 78.9049 49.5571 78.9509 49.4051 78.9802C49.175 79.0314 48.9398 79.0559 48.7041 79.0532C48.4132 79.0596 48.1239 79.0085 47.8528 78.9028C47.6259 78.815 47.4228 78.6748 47.2602 78.4938C47.1024 78.3148 46.9855 78.1035 46.9175 77.8747C46.8414 77.6187 46.8049 77.3525 46.8091 77.0854V77.0854ZM49.3984 76.714C49.4156 76.4459 49.3373 76.1804 49.1773 75.9645C49.1002 75.8678 49.0013 75.7907 48.8887 75.7396C48.7761 75.6885 48.653 75.6648 48.5294 75.6705C48.3871 75.6681 48.2463 75.6991 48.1182 75.7611C48.0039 75.8203 47.9018 75.9005 47.8174 75.9977C47.7343 76.0968 47.6691 76.2098 47.6251 76.3315C47.5808 76.4553 47.5504 76.5836 47.5344 76.714H49.3984Z" fill="white"/>
<path d="M51.9501 78.4785C52.1602 78.4912 52.3702 78.4533 52.5626 78.3679C52.6266 78.3363 52.6798 78.2864 52.7156 78.2247C52.7514 78.1629 52.7681 78.092 52.7638 78.0207C52.7657 77.9444 52.7488 77.8687 52.7145 77.8004C52.6801 77.7321 52.6295 77.6734 52.567 77.6294C52.3654 77.4953 52.1487 77.3854 51.9213 77.3021C51.7776 77.2446 51.6383 77.1849 51.5056 77.1252C51.3808 77.0682 51.2647 76.9937 51.1607 76.9041C51.0638 76.8224 50.9847 76.7215 50.9285 76.6078C50.842 76.4029 50.8228 76.1757 50.8736 75.9591C50.9245 75.7426 51.0428 75.5477 51.2116 75.4027C51.5039 75.1917 51.8599 75.0878 52.2199 75.1086C52.3262 75.109 52.4325 75.1149 52.5383 75.1263C52.6444 75.1396 52.7439 75.1529 52.8346 75.1705C52.9252 75.1882 53.0092 75.2059 53.0778 75.2236L53.2414 75.2745L53.1176 75.856C53.0092 75.8029 52.8949 75.7628 52.7771 75.7366C52.5948 75.6918 52.4075 75.671 52.2199 75.6747C52.0486 75.6704 51.8791 75.7091 51.7268 75.7875C51.6591 75.8174 51.6019 75.8668 51.5625 75.9295C51.5231 75.9921 51.5033 76.0651 51.5056 76.139C51.5041 76.2156 51.5208 76.2914 51.5543 76.3602C51.5886 76.4271 51.6377 76.4854 51.698 76.5304C51.7732 76.587 51.8549 76.6345 51.9412 76.6719C52.0385 76.7162 52.1624 76.7626 52.2906 76.8112C52.4705 76.8776 52.6297 76.9439 52.7682 77.0102C52.8983 77.0663 53.0197 77.1407 53.1286 77.2314C53.2247 77.3192 53.3002 77.4272 53.3498 77.5476C53.4052 77.6883 53.4322 77.8386 53.4294 77.9898C53.4375 78.1437 53.406 78.2971 53.3379 78.4353C53.2697 78.5735 53.1672 78.6919 53.0402 78.7792C52.7073 78.9784 52.3219 79.0724 51.9346 79.0489C51.6711 79.0568 51.4077 79.0285 51.1519 78.9649C50.9632 78.9104 50.8349 78.8684 50.7671 78.8389L50.8909 78.2573L51.2602 78.3878C51.4837 78.4553 51.7167 78.486 51.9501 78.4785V78.4785Z" fill="white"/>
<path d="M56.607 75.1931H58.0353V75.7569H56.607V77.4989C56.6041 77.6556 56.619 77.8121 56.6512 77.9654C56.6721 78.0713 56.7167 78.1711 56.7817 78.2572C56.8398 78.3265 56.9165 78.3779 57.0028 78.4053C57.1016 78.4352 57.2046 78.4494 57.3079 78.4473C57.4742 78.4532 57.6403 78.43 57.7987 78.3788L58.0552 78.2815L58.1856 78.8409C58.0701 78.8913 57.9512 78.9334 57.8297 78.9669C57.6413 79.02 57.4461 79.0453 57.2504 79.042C57.0347 79.0494 56.8194 79.0164 56.6158 78.9448C56.4572 78.8855 56.318 78.7838 56.2134 78.6507C56.104 78.509 56.0284 78.3442 55.9923 78.1688C55.9491 77.9504 55.9283 77.7282 55.9304 77.5056V74.1408L56.5937 74.0259L56.607 75.1931Z" fill="white"/>
<path d="M58.6171 77.0854C58.6101 76.7879 58.6588 76.4917 58.7608 76.2121C58.846 75.9813 58.9768 75.77 59.1455 75.5909C59.3004 75.4297 59.4882 75.3038 59.696 75.2216C59.8993 75.1405 60.1161 75.0985 60.335 75.0978C60.5528 75.0841 60.7709 75.1198 60.973 75.2021C61.1751 75.2844 61.3561 75.4112 61.5024 75.5732C61.7751 75.8886 61.9107 76.3706 61.9092 77.0191V77.1318C61.9128 77.1738 61.9128 77.2159 61.9092 77.2579H59.3202C59.3253 77.5837 59.446 77.8971 59.6606 78.1422C59.787 78.2529 59.9343 78.3369 60.0939 78.3894C60.2534 78.4418 60.4219 78.4615 60.5892 78.4473C60.79 78.4505 60.9904 78.4297 61.1862 78.3854C61.3117 78.356 61.4344 78.316 61.5532 78.266L61.6483 78.832C61.5096 78.8923 61.3652 78.9383 61.2172 78.9691C60.9871 79.0203 60.7519 79.0448 60.5163 79.042C60.2254 79.0484 59.9362 78.9973 59.6651 78.8917C59.4381 78.8038 59.2351 78.6637 59.0725 78.4827C58.9149 78.3032 58.7973 78.0922 58.7276 77.8636C58.6519 77.6113 58.6147 77.3489 58.6171 77.0854V77.0854ZM61.2061 76.714C61.2233 76.4459 61.145 76.1803 60.985 75.9645C60.9079 75.8678 60.809 75.7907 60.6964 75.7396C60.5838 75.6885 60.4607 75.6648 60.3372 75.6704C60.1949 75.668 60.0541 75.6991 59.926 75.7611C59.8113 75.8197 59.7092 75.9 59.6253 75.9977C59.5421 76.0968 59.477 76.2098 59.4329 76.3315C59.3887 76.4553 59.3583 76.5835 59.3423 76.714H61.2061Z" fill="white"/>
<path d="M64.521 79.0513C64.2464 79.057 63.9734 79.0073 63.7184 78.9053C63.4974 78.8145 63.2995 78.6755 63.1391 78.4985C62.9789 78.3196 62.859 78.1085 62.7875 77.8793C62.7071 77.6225 62.6675 77.3546 62.6703 77.0854C62.6668 76.814 62.7102 76.5439 62.7985 76.2872C62.8763 76.0567 62.998 75.8434 63.1567 75.6592C63.3136 75.4814 63.5076 75.3402 63.725 75.2457C63.9624 75.1441 64.2186 75.0936 64.4768 75.0975C64.6465 75.0979 64.8159 75.1127 64.9831 75.1417C65.1497 75.1699 65.3128 75.2159 65.4696 75.2788L65.317 75.8516C65.2047 75.7998 65.0867 75.7612 64.9654 75.7366C64.8259 75.7066 64.6836 75.6918 64.5409 75.6923C64.379 75.6825 64.2169 75.7095 64.0668 75.7711C63.9167 75.8328 63.7825 75.9275 63.6741 76.0484C63.4546 76.3477 63.3481 76.7151 63.3734 77.0854C63.3722 77.2734 63.3953 77.4607 63.442 77.6427C63.4824 77.8045 63.5579 77.9555 63.6631 78.085C63.7645 78.2083 63.8953 78.3041 64.0434 78.3636C64.2234 78.4346 64.416 78.4685 64.6095 78.4631C64.773 78.4643 64.9362 78.4473 65.0959 78.4122C65.2124 78.3863 65.3264 78.35 65.4364 78.3039L65.5315 78.8677C65.4786 78.8982 65.4222 78.922 65.3635 78.9385C65.2905 78.9584 65.2087 78.9783 65.118 78.996C65.0274 79.0137 64.9279 79.027 64.8239 79.038C64.7233 79.0488 64.6222 79.0533 64.521 79.0513V79.0513Z" fill="white"/>
<path d="M66.2521 75.3005C66.4069 75.2607 66.6126 75.2208 66.8691 75.1766C67.1616 75.1305 67.4575 75.109 67.7536 75.1125C68.0086 75.1043 68.2627 75.1472 68.501 75.2385C68.6879 75.3135 68.8519 75.4363 68.9765 75.5946C69.0993 75.7558 69.1846 75.9424 69.2263 76.1408C69.2768 76.3725 69.3013 76.6091 69.2993 76.8462V78.9625H68.6359V76.99C68.6385 76.7907 68.623 76.5916 68.5895 76.3951C68.5667 76.2526 68.5131 76.1167 68.4325 75.9971C68.3604 75.8958 68.2594 75.8188 68.1428 75.7759C68.0006 75.7269 67.8509 75.7036 67.7005 75.7074H67.4794L67.2583 75.725C67.1875 75.725 67.1256 75.7405 67.0703 75.7494L66.9509 75.7715V78.9559H66.2742L66.2521 75.3005Z" fill="white"/>
<path d="M73.7458 77.0763C73.7494 77.3531 73.7053 77.6284 73.6153 77.8901C73.5341 78.1196 73.4095 78.3313 73.2483 78.5137C73.0923 78.6867 72.9007 78.824 72.6867 78.9162C72.4614 79.0096 72.2198 79.0576 71.9759 79.0576C71.7319 79.0576 71.4904 79.0096 71.265 78.9162C71.0511 78.824 70.8595 78.6867 70.7034 78.5137C70.5415 78.3319 70.4168 78.12 70.3364 77.8901C70.1625 77.3638 70.1625 76.7955 70.3364 76.2692C70.4158 76.0375 70.5405 75.824 70.7034 75.6412C70.8595 75.4682 71.0511 75.3309 71.265 75.2387C71.4904 75.1454 71.7319 75.0973 71.9759 75.0973C72.2198 75.0973 72.4614 75.1454 72.6867 75.2387C72.9007 75.3309 73.0923 75.4682 73.2483 75.6412C73.4105 75.8246 73.5352 76.0379 73.6153 76.2692C73.7046 76.5288 73.7487 76.8018 73.7458 77.0763V77.0763ZM73.0427 77.0763C73.0593 76.7162 72.9558 76.3608 72.7486 76.0658C72.6549 75.9511 72.5368 75.8586 72.403 75.7951C72.2692 75.7316 72.1229 75.6987 71.9748 75.6987C71.8266 75.6987 71.6804 75.7316 71.5465 75.7951C71.4127 75.8586 71.2947 75.9511 71.2009 76.0658C71.013 76.3697 70.9135 76.7201 70.9135 77.0775C70.9135 77.4348 71.013 77.7852 71.2009 78.0891C71.2947 78.2038 71.4127 78.2963 71.5465 78.3598C71.6804 78.4233 71.8266 78.4562 71.9748 78.4562C72.1229 78.4562 72.2692 78.4233 72.403 78.3598C72.5368 78.2963 72.6549 78.2038 72.7486 78.0891C72.9562 77.7935 73.0596 77.4372 73.0427 77.0763V77.0763Z" fill="white"/>
<path d="M75.8269 79.0354C75.509 79.058 75.194 78.9628 74.9419 78.7679C74.8472 78.6604 74.7752 78.5349 74.7303 78.3989C74.6855 78.2628 74.6686 78.1191 74.6808 77.9764V73.4508L75.3556 73.3358V77.8681C75.3533 77.9611 75.363 78.054 75.3844 78.1445C75.4001 78.2094 75.433 78.269 75.4795 78.3169C75.5278 78.3641 75.5871 78.3983 75.6521 78.4164C75.7407 78.4404 75.8309 78.4582 75.9221 78.4695L75.8269 79.0354Z" fill="white"/>
<path d="M80.0044 77.0767C80.0092 77.3534 79.965 77.6289 79.8739 77.8903C79.7943 78.12 79.6702 78.3318 79.5089 78.5138C79.3528 78.6868 79.1611 78.824 78.9471 78.9162C78.722 79.0121 78.4795 79.0602 78.2348 79.0577C77.9908 79.0606 77.7489 79.0124 77.5247 78.9162C77.3096 78.8247 77.1171 78.6873 76.9607 78.5138C76.7993 78.3318 76.6753 78.12 76.5957 77.8903C76.4217 77.3641 76.4217 76.7959 76.5957 76.2697C76.6743 76.0381 76.7984 75.8247 76.9607 75.6417C77.1171 75.4682 77.3096 75.3309 77.5247 75.2394C77.7489 75.1432 77.9908 75.095 78.2348 75.0979C78.4795 75.0953 78.722 75.1435 78.9471 75.2394C79.1611 75.3315 79.3528 75.4688 79.5089 75.6417C79.6712 75.8247 79.7953 76.0381 79.8739 76.2697C79.9642 76.529 80.0084 76.8021 80.0044 77.0767V77.0767ZM79.301 77.0767C79.3202 76.7176 79.2198 76.3623 79.0156 76.0663C78.9219 75.9516 78.8038 75.8591 78.6699 75.7957C78.536 75.7322 78.3896 75.6993 78.2414 75.6993C78.0932 75.6993 77.9469 75.7322 77.813 75.7957C77.6791 75.8591 77.561 75.9516 77.4672 76.0663C77.2792 76.3702 77.1796 76.7204 77.1796 77.0778C77.1796 77.4351 77.2792 77.7853 77.4672 78.0893C77.561 78.204 77.6791 78.2964 77.813 78.3599C77.9469 78.4233 78.0932 78.4563 78.2414 78.4563C78.3896 78.4563 78.536 78.4233 78.6699 78.3599C78.8038 78.2964 78.9219 78.204 79.0156 78.0893C79.2202 77.7926 79.3205 77.4365 79.301 77.0767V77.0767ZM79.113 73.7602L78.091 74.7529L77.7481 74.4478L78.6772 73.3313L79.113 73.7602Z" fill="white"/>
<path d="M83.3185 78.5873C83.2118 78.6478 83.0992 78.6975 82.9825 78.7355C82.7945 78.7988 82.5971 78.8294 82.3988 78.8261C82.1803 78.8282 81.9633 78.7915 81.7576 78.7178C81.5586 78.6467 81.3786 78.5309 81.2314 78.3794C81.0741 78.2171 80.9528 78.0235 80.8754 77.811C80.7831 77.5499 80.7389 77.2741 80.745 76.9972C80.7426 76.7398 80.7845 76.484 80.8688 76.2408C80.9451 76.0196 81.0672 75.8169 81.227 75.6459C81.3884 75.4748 81.5854 75.3412 81.804 75.2545C82.0485 75.1564 82.3101 75.1082 82.5734 75.1129C82.8492 75.1092 83.1246 75.1322 83.3959 75.1815C83.6303 75.2272 83.827 75.2692 83.9862 75.3076V78.6735C83.9862 79.2545 83.8388 79.6754 83.544 79.9363C83.2433 80.1973 82.7901 80.3278 82.1799 80.3278C81.9575 80.3281 81.7356 80.3088 81.5166 80.2703C81.3308 80.2368 81.1476 80.1902 80.9683 80.131L81.0921 79.5449C81.2539 79.6054 81.4202 79.6527 81.5896 79.6864C81.7911 79.7277 81.9963 79.7485 82.202 79.7484C82.5105 79.7755 82.8185 79.6899 83.0687 79.5073C83.164 79.4065 83.2368 79.2864 83.2822 79.1553C83.3275 79.0241 83.3444 78.8848 83.3318 78.7465L83.3185 78.5873ZM83.3185 75.7875C83.2291 75.7636 83.1382 75.7451 83.0466 75.7322C82.8941 75.713 82.7404 75.7048 82.5867 75.7078C82.4292 75.6986 82.2718 75.7257 82.1265 75.787C81.9812 75.8484 81.8519 75.9424 81.7488 76.0617C81.5416 76.3315 81.4374 76.6663 81.4547 77.006C81.4508 77.1952 81.4792 77.3837 81.5387 77.5633C81.5853 77.7054 81.6606 77.8364 81.7598 77.9482C81.8497 78.0459 81.9609 78.1216 82.0848 78.1693C82.2058 78.2175 82.3349 78.2423 82.4651 78.2423C82.6326 78.2439 82.7992 78.2177 82.9581 78.1649C83.0855 78.1255 83.2057 78.0657 83.3141 77.988L83.3185 75.7875Z" fill="white"/>
<path d="M85.481 74.518C85.3662 74.5199 85.2552 74.4771 85.1714 74.3986C85.0902 74.3107 85.045 74.1954 85.045 74.0757C85.045 73.956 85.0902 73.8408 85.1714 73.7529C85.2552 73.6744 85.3662 73.6316 85.481 73.6335C85.5983 73.6335 85.7108 73.6801 85.7937 73.763C85.8766 73.846 85.9232 73.9584 85.9232 74.0757C85.9232 74.193 85.8766 74.3055 85.7937 74.3885C85.7108 74.4714 85.5983 74.518 85.481 74.518V74.518ZM85.8215 78.9716H85.1471V75.1924H85.8215V78.9716Z" fill="white"/>
<path d="M88.6209 79.0514C88.347 79.0573 88.0747 79.0076 87.8205 78.9054C87.5988 78.8146 87.4002 78.6756 87.2389 78.4985C87.0787 78.3197 86.9588 78.1085 86.8873 77.8793C86.8077 77.6224 86.7689 77.3545 86.7723 77.0855C86.77 76.8141 86.8133 76.5442 86.9006 76.2872C86.9784 76.0567 87.1 75.8434 87.2588 75.6592C87.416 75.4808 87.6109 75.3396 87.8293 75.2456C88.066 75.1443 88.3214 75.0938 88.5789 75.0975C88.7494 75.0979 88.9195 75.1127 89.0875 75.1417C89.254 75.1702 89.4171 75.2161 89.5739 75.2788L89.4214 75.8515C89.309 75.7998 89.191 75.7612 89.0698 75.7366C88.9303 75.7066 88.7879 75.6918 88.6452 75.6923C88.4833 75.6824 88.3211 75.7092 88.171 75.7709C88.0209 75.8325 87.8867 75.9274 87.7784 76.0484C87.5579 76.3472 87.4512 76.715 87.4777 77.0855C87.4754 77.2735 87.4985 77.4609 87.5463 77.6427C87.5876 77.8043 87.663 77.9551 87.7674 78.085C87.8696 78.2084 88.0011 78.3041 88.1499 78.3636C88.3292 78.4345 88.521 78.4684 88.7138 78.4631C88.8773 78.4645 89.0405 78.4475 89.2002 78.4123C89.3168 78.3867 89.4308 78.3504 89.5408 78.3039L89.6359 78.8678C89.5836 78.8979 89.5279 78.9217 89.47 78.9386C89.397 78.9585 89.3152 78.9784 89.2224 78.9961C89.1295 79.0138 89.0322 79.027 88.9283 79.0381C88.8262 79.0492 88.7235 79.0536 88.6209 79.0514Z" fill="white"/>
<path d="M91.5728 75.097C91.8059 75.0908 92.0381 75.1267 92.2583 75.2032C92.428 75.2637 92.58 75.3655 92.7005 75.4995C92.8167 75.6307 92.9001 75.7876 92.9438 75.9573C92.9941 76.1477 93.0187 76.3441 93.0167 76.5411V78.8985L92.7735 78.9383C92.6696 78.9538 92.5524 78.9715 92.4219 78.9848C92.2915 78.998 92.1499 79.0135 91.9974 79.0246C91.8448 79.0356 91.6944 79.0422 91.5441 79.0422C91.3469 79.0447 91.1501 79.0232 90.9581 78.9781C90.7913 78.9398 90.6335 78.8692 90.4938 78.7702C90.3614 78.6743 90.2562 78.5455 90.1886 78.3965C90.1119 78.221 90.0749 78.0307 90.0803 77.8392C90.0753 77.6522 90.1187 77.4671 90.2063 77.3018C90.2889 77.1538 90.4075 77.029 90.5513 76.9392C90.7074 76.8434 90.8786 76.7746 91.0576 76.7357C91.2582 76.6926 91.4628 76.6711 91.6679 76.6716C91.7418 76.6705 91.8156 76.6742 91.889 76.6826C91.9588 76.6885 92.0282 76.6981 92.0969 76.7114L92.2671 76.7445L92.3689 76.7644V76.5765C92.3685 76.4656 92.3559 76.3551 92.3313 76.247C92.3094 76.1421 92.2649 76.0432 92.2008 75.9573C92.1344 75.8684 92.046 75.7983 91.9443 75.7538C91.8099 75.698 91.6652 75.6716 91.5198 75.6764C91.3241 75.6748 91.1287 75.691 90.936 75.7251C90.8087 75.7456 90.6835 75.7782 90.5623 75.8224L90.4827 75.2629C90.6257 75.2101 90.774 75.173 90.925 75.1523C91.1388 75.1144 91.3557 75.0959 91.5728 75.097V75.097ZM91.6303 78.4783C91.7895 78.4783 91.931 78.4783 92.0549 78.4673C92.1588 78.4609 92.2623 78.4476 92.3644 78.4275V77.3018C92.2887 77.2705 92.2092 77.2497 92.1278 77.2399C91.9966 77.2226 91.8644 77.2145 91.732 77.2156C91.6241 77.2157 91.5162 77.2231 91.4092 77.2377C91.3009 77.25 91.1955 77.2807 91.0974 77.3284C91.0057 77.3719 90.9254 77.4362 90.8631 77.5163C90.7958 77.6076 90.7622 77.7193 90.768 77.8326C90.7578 77.9297 90.7741 78.0278 90.8149 78.1165C90.8558 78.2053 90.9198 78.2813 91.0001 78.3368C91.1937 78.4397 91.4114 78.4886 91.6303 78.4783V78.4783Z" fill="white"/>
<path d="M95.0179 78.4787C95.228 78.4915 95.4381 78.4535 95.6304 78.3682C95.6938 78.336 95.7464 78.286 95.7817 78.2243C95.8171 78.1627 95.8337 78.092 95.8294 78.0211C95.8318 77.9448 95.8153 77.8692 95.7813 77.8009C95.7474 77.7327 95.697 77.6738 95.6348 77.6297C95.4332 77.4957 95.2165 77.3858 94.9892 77.3025C94.8432 77.245 94.7039 77.1854 94.5713 77.1257C94.4474 77.0681 94.3321 76.9937 94.2286 76.9046C94.1316 76.8228 94.0526 76.722 93.9964 76.6083C93.9333 76.4744 93.903 76.3274 93.9079 76.1794C93.9022 76.0271 93.9329 75.8756 93.9975 75.7376C94.0621 75.5995 94.1588 75.4789 94.2794 75.3857C94.571 75.175 94.9263 75.0712 95.2855 75.0917C95.3926 75.092 95.4996 75.0979 95.6061 75.1093C95.7122 75.1226 95.8117 75.1359 95.9024 75.1536C95.993 75.1712 96.0748 75.1889 96.1456 75.2066L96.3092 75.2575L96.1876 75.8456C96.0791 75.7928 95.9648 75.7527 95.8471 75.7262C95.6641 75.6812 95.4761 75.6604 95.2877 75.6643C95.1165 75.6604 94.9471 75.6991 94.7946 75.777C94.7292 75.8088 94.6744 75.859 94.6371 75.9215C94.5998 75.9839 94.5815 76.0559 94.5845 76.1286C94.5818 76.2052 94.5985 76.2812 94.6332 76.3496C94.6675 76.4166 94.7166 76.4748 94.7769 76.5199C94.8518 76.5769 94.9335 76.6245 95.0201 76.6614C95.1174 76.7056 95.2413 76.752 95.3673 76.8007C95.5464 76.867 95.7078 76.9333 95.8471 76.9996C95.9763 77.0562 96.0968 77.1306 96.2053 77.2207C96.3019 77.3081 96.3775 77.4162 96.4264 77.5369C96.4818 77.6776 96.5089 77.8279 96.506 77.9791C96.5142 78.1329 96.4827 78.2863 96.4145 78.4245C96.3464 78.5627 96.2439 78.6811 96.1169 78.7683C95.7839 78.9675 95.3986 79.0616 95.0113 79.0381C94.7478 79.0459 94.4844 79.0176 94.2286 78.954C94.0399 78.8995 93.9116 78.8575 93.8438 78.828L93.9676 78.2466C94.045 78.2753 94.1666 78.3195 94.3369 78.377C94.557 78.4473 94.7869 78.4817 95.0179 78.4787V78.4787Z" fill="white"/>
<path d="M98.8414 77.0854C98.8344 76.7879 98.8831 76.4917 98.9851 76.2121C99.0703 75.9813 99.2011 75.77 99.3698 75.5909C99.5247 75.4297 99.7125 75.3038 99.9204 75.2216C100.124 75.1405 100.341 75.0985 100.559 75.0978C100.777 75.0841 100.995 75.1198 101.197 75.2021C101.4 75.2844 101.581 75.4112 101.727 75.5732C101.997 75.8893 102.134 76.3713 102.134 77.0191V77.1318C102.137 77.1738 102.137 77.2159 102.134 77.2579H99.5445C99.5496 77.5837 99.6703 77.8971 99.885 78.1422C100.011 78.253 100.159 78.3371 100.318 78.3895C100.478 78.442 100.646 78.4616 100.814 78.4473C101.014 78.4505 101.215 78.4297 101.411 78.3854C101.536 78.356 101.659 78.316 101.778 78.266L101.873 78.832C101.731 78.8932 101.582 78.9392 101.431 78.9691C101.201 79.0203 100.967 79.0448 100.732 79.042C100.441 79.0484 100.152 78.9973 99.8806 78.8917C99.6537 78.8038 99.4506 78.6637 99.288 78.4827C99.1303 78.3032 99.0127 78.0922 98.9431 77.8636C98.8703 77.6108 98.8361 77.3485 98.8414 77.0854V77.0854ZM101.431 76.714C101.448 76.4459 101.369 76.1803 101.209 75.9645C101.132 75.8678 101.034 75.7907 100.921 75.7396C100.808 75.6885 100.685 75.6648 100.562 75.6704C100.419 75.668 100.278 75.6991 100.15 75.7611C100.036 75.8197 99.9335 75.9 99.8496 75.9977C99.7665 76.0968 99.7014 76.2098 99.6573 76.3315C99.613 76.4553 99.5826 76.5835 99.5666 76.714H101.431Z" fill="white"/>
<path d="M103.104 75.3006C103.259 75.2608 103.465 75.221 103.717 75.1768C104.009 75.1303 104.305 75.1089 104.601 75.1126C104.808 75.1061 105.015 75.1391 105.21 75.2099C105.368 75.2705 105.51 75.3683 105.623 75.4952C105.658 75.4709 105.711 75.4377 105.784 75.3957C105.87 75.3452 105.959 75.3023 106.052 75.2674C106.168 75.2239 106.287 75.1877 106.408 75.1591C106.546 75.1272 106.687 75.1117 106.828 75.1126C107.071 75.1038 107.313 75.1468 107.538 75.2387C107.713 75.3146 107.862 75.4389 107.969 75.5969C108.082 75.7629 108.158 75.9516 108.19 76.1498C108.227 76.3801 108.245 76.6131 108.243 76.8463V78.9626H107.569V76.9901C107.571 76.7986 107.56 76.6073 107.536 76.4173C107.521 76.278 107.48 76.1429 107.414 76.0193C107.357 75.9173 107.271 75.8348 107.166 75.7827C107.04 75.7277 106.902 75.702 106.764 75.7075C106.573 75.7007 106.382 75.7315 106.202 75.7981C106.095 75.8364 105.993 75.8908 105.902 75.9596C105.941 76.095 105.97 76.2332 105.988 76.3731C106.008 76.53 106.017 76.6881 106.017 76.8463V78.9626H105.353V76.9901C105.356 76.7985 105.344 76.6071 105.318 76.4173C105.3 76.2778 105.257 76.1428 105.19 76.0193C105.134 75.9169 105.049 75.8342 104.944 75.7827C104.82 75.7281 104.684 75.7024 104.548 75.7075H104.327L104.106 75.7252C104.035 75.7252 103.971 75.7407 103.914 75.7495L103.797 75.7716V78.9559H103.122L103.104 75.3006Z" fill="white"/>
<path d="M110.815 77.0854C110.809 76.788 110.858 76.492 110.959 76.2121C111.044 75.9813 111.175 75.77 111.343 75.5909C111.5 75.4302 111.688 75.3043 111.896 75.2216C112.099 75.1405 112.315 75.0985 112.533 75.0978C112.751 75.0841 112.969 75.1198 113.171 75.2021C113.374 75.2844 113.554 75.4112 113.701 75.5732C113.972 75.8886 114.108 76.3706 114.108 77.0191V77.1318C114.11 77.1738 114.11 77.2159 114.108 77.2579H111.518C111.524 77.5835 111.645 77.8966 111.859 78.1422C111.985 78.2529 112.132 78.3369 112.292 78.3894C112.452 78.4418 112.62 78.4615 112.787 78.4473C112.989 78.4503 113.19 78.4296 113.387 78.3854C113.511 78.3557 113.634 78.3157 113.752 78.266L113.847 78.832C113.705 78.8938 113.556 78.9398 113.404 78.9691C113.174 79.0203 112.939 79.0448 112.703 79.042C112.413 79.0484 112.123 78.9973 111.852 78.8917C111.626 78.803 111.424 78.663 111.262 78.4827C111.104 78.3032 110.986 78.0922 110.917 77.8636C110.844 77.6108 110.81 77.3485 110.815 77.0854V77.0854ZM113.404 76.714C113.422 76.4459 113.343 76.1803 113.183 75.9645C113.106 75.8678 113.006 75.7907 112.893 75.7396C112.781 75.6885 112.657 75.6648 112.533 75.6704C112.392 75.6675 112.251 75.6986 112.124 75.7611C112.009 75.8191 111.907 75.8996 111.823 75.9977C111.739 76.0957 111.673 76.209 111.631 76.3315C111.585 76.4546 111.554 76.5832 111.54 76.714H113.404Z" fill="white"/>
<path d="M117.517 73.4508L118.18 73.3358V78.8637C118.026 78.9079 117.827 78.9499 117.586 78.9941C117.31 79.0411 117.031 79.0633 116.752 79.0605C116.484 79.0647 116.217 79.0174 115.967 78.9212C115.743 78.8353 115.54 78.7017 115.372 78.5298C115.203 78.3523 115.074 78.1414 114.992 77.9107C114.899 77.6457 114.854 77.3666 114.857 77.0859C114.858 76.815 114.9 76.5458 114.983 76.2877C115.05 76.06 115.162 75.848 115.312 75.6642C115.458 75.4898 115.641 75.3507 115.847 75.2573C116.074 75.1564 116.32 75.1066 116.568 75.1114C116.764 75.1078 116.96 75.1377 117.145 75.1998C117.276 75.2413 117.401 75.2969 117.519 75.3656L117.517 73.4508ZM117.517 75.9892C117.408 75.9079 117.288 75.8423 117.161 75.7946C116.999 75.7298 116.826 75.6975 116.652 75.6995C116.481 75.6948 116.311 75.7312 116.157 75.8057C116.022 75.8723 115.905 75.9719 115.819 76.0953C115.727 76.2289 115.664 76.3792 115.631 76.5376C115.591 76.7153 115.571 76.8971 115.573 77.0793C115.549 77.4479 115.665 77.8119 115.898 78.0986C116.009 78.2185 116.144 78.3128 116.294 78.3751C116.445 78.4373 116.607 78.466 116.77 78.459C116.923 78.4609 117.077 78.452 117.229 78.4325C117.326 78.421 117.422 78.4032 117.517 78.3794V75.9892Z" fill="white"/>
<path d="M122.352 78.854C122.198 78.8938 121.994 78.9336 121.74 78.9778C121.447 79.0245 121.151 79.046 120.855 79.042C120.605 79.049 120.355 79.0062 120.121 78.9159C119.934 78.8392 119.77 78.7159 119.644 78.5577C119.519 78.3954 119.43 78.2085 119.383 78.0094C119.327 77.7799 119.301 77.5445 119.303 77.3084V75.1924H119.977V77.1713C119.951 77.5148 120.028 77.8583 120.199 78.1575C120.287 78.2628 120.4 78.3448 120.528 78.3964C120.655 78.4481 120.794 78.4678 120.931 78.4538H121.152L121.373 78.4361L121.556 78.414C121.597 78.4102 121.637 78.402 121.676 78.3897V75.2056H122.35L122.352 78.854Z" fill="white"/>
<path d="M125.154 79.0513C124.88 79.0568 124.608 79.0072 124.353 78.9053C124.132 78.8145 123.934 78.6755 123.774 78.4985C123.614 78.3196 123.494 78.1085 123.422 77.8793C123.341 77.6227 123.301 77.3546 123.305 77.0855C123.302 76.8142 123.345 76.5443 123.431 76.2872C123.511 76.057 123.633 75.8439 123.792 75.6592C123.949 75.4814 124.143 75.3402 124.36 75.2457C124.597 75.1441 124.854 75.0936 125.112 75.0975C125.282 75.0979 125.451 75.1127 125.618 75.1417C125.785 75.1699 125.948 75.2159 126.105 75.2788L125.95 75.8449C125.838 75.7931 125.72 75.7546 125.598 75.7299C125.459 75.7 125.316 75.6852 125.174 75.6857C125.012 75.6759 124.85 75.7028 124.7 75.7645C124.55 75.8261 124.415 75.9209 124.307 76.0417C124.087 76.3411 123.981 76.7085 124.006 77.0788C124.005 77.2667 124.028 77.454 124.075 77.6361C124.115 77.7979 124.191 77.9489 124.296 78.0783C124.397 78.2017 124.528 78.2975 124.676 78.3569C124.856 78.428 125.049 78.4619 125.242 78.4565C125.406 78.4577 125.569 78.4406 125.729 78.4056C125.845 78.3796 125.959 78.3434 126.069 78.2972L126.162 78.8611C126.11 78.8921 126.055 78.916 125.996 78.9319C125.923 78.9518 125.842 78.9717 125.749 78.9894C125.656 79.0071 125.561 79.0203 125.457 79.0314C125.356 79.0443 125.255 79.051 125.154 79.0513V79.0513Z" fill="white"/>
<path d="M128.104 75.097C128.337 75.0908 128.569 75.1267 128.789 75.2032C128.959 75.2644 129.11 75.3662 129.232 75.4995C129.347 75.6314 129.43 75.788 129.475 75.9573C129.524 76.1479 129.548 76.3442 129.546 76.5411V78.8985L129.305 78.9383C129.201 78.9538 129.083 78.9715 128.953 78.9847C128.822 78.998 128.681 79.0135 128.528 79.0246C128.376 79.0356 128.223 79.0422 128.086 79.0422C127.888 79.0447 127.691 79.0232 127.498 78.9781C127.331 78.9398 127.173 78.8692 127.033 78.7702C126.901 78.6743 126.796 78.5455 126.728 78.3965C126.652 78.221 126.614 78.0307 126.62 77.8392C126.615 77.6522 126.658 77.4671 126.746 77.3018C126.83 77.1547 126.948 77.0302 127.091 76.9392C127.248 76.8433 127.42 76.7746 127.6 76.7357C127.799 76.6926 128.003 76.6711 128.208 76.6716C128.282 76.6704 128.355 76.6741 128.429 76.6826C128.499 76.6885 128.568 76.6981 128.637 76.7114L128.807 76.7445L128.909 76.7644V76.5765C128.909 76.4657 128.897 76.3552 128.873 76.247C128.851 76.1424 128.806 76.0437 128.743 75.9573C128.675 75.8688 128.586 75.7988 128.484 75.7538C128.35 75.6975 128.205 75.6711 128.06 75.6764C127.864 75.6749 127.668 75.6912 127.476 75.7251C127.348 75.7459 127.223 75.7784 127.102 75.8224L127.022 75.2629C127.165 75.2104 127.314 75.1733 127.465 75.1523C127.676 75.115 127.89 75.0965 128.104 75.097V75.097ZM128.163 78.4783C128.323 78.4783 128.464 78.4783 128.588 78.4673C128.691 78.461 128.794 78.4477 128.895 78.4275V77.3018C128.82 77.2703 128.74 77.2495 128.659 77.2399C128.528 77.2226 128.397 77.2145 128.265 77.2156C128.157 77.2156 128.049 77.223 127.942 77.2377C127.834 77.2494 127.728 77.2801 127.631 77.3284C127.538 77.3712 127.457 77.4357 127.394 77.5163C127.328 77.6081 127.294 77.7195 127.299 77.8326C127.288 77.9287 127.302 78.0261 127.341 78.1147C127.38 78.2034 127.442 78.28 127.52 78.3368C127.717 78.442 127.94 78.4909 128.163 78.4783Z" fill="white"/>
<path d="M132.398 79.0515L132.319 79.2328C132.436 79.2826 132.54 79.3582 132.624 79.4539C132.694 79.5574 132.727 79.681 132.719 79.8055C132.717 79.8655 132.704 79.9247 132.681 79.9802C132.655 80.0469 132.612 80.1061 132.558 80.1527C132.49 80.2118 132.411 80.2563 132.325 80.2831C132.211 80.3205 132.091 80.3377 131.971 80.334C131.856 80.3353 131.74 80.3256 131.626 80.3053C131.541 80.2912 131.458 80.2697 131.376 80.2411L131.456 79.8276C131.514 79.8453 131.576 79.863 131.64 79.8785C131.713 79.8924 131.787 79.899 131.861 79.8984C132.036 79.8984 132.124 79.8431 132.124 79.7325C132.123 79.7049 132.115 79.6779 132.101 79.6542C132.087 79.6306 132.066 79.6111 132.042 79.5976C131.972 79.553 131.898 79.5153 131.821 79.4849L131.77 79.465C131.79 79.4053 131.817 79.3367 131.85 79.2549C131.882 79.1755 131.918 79.098 131.958 79.0227C131.73 78.9919 131.51 78.9168 131.31 78.8016C131.126 78.6964 130.967 78.5541 130.841 78.3837C130.711 78.2084 130.615 78.0104 130.558 77.7999C130.493 77.5651 130.461 77.3225 130.463 77.079C130.461 76.8076 130.504 76.5377 130.591 76.2807C130.669 76.0503 130.791 75.837 130.95 75.6527C131.107 75.4744 131.302 75.3332 131.52 75.2392C131.757 75.1374 132.012 75.0869 132.27 75.0911C132.441 75.0915 132.611 75.1063 132.779 75.1353C132.945 75.1638 133.109 75.2097 133.265 75.2724L133.115 75.8451C133.003 75.7933 132.885 75.7547 132.763 75.7301C132.624 75.7005 132.481 75.6857 132.339 75.6859C132.177 75.6756 132.014 75.7023 131.864 75.764C131.714 75.8257 131.58 75.9207 131.472 76.0419C131.251 76.3407 131.144 76.7085 131.171 77.079C131.168 77.267 131.191 77.4544 131.239 77.6362C131.279 77.7985 131.354 77.9497 131.46 78.0785C131.562 78.2018 131.693 78.2976 131.841 78.3571C132.021 78.4279 132.214 78.4618 132.407 78.4566C132.571 78.4579 132.734 78.4408 132.894 78.4058C133.01 78.3802 133.124 78.3439 133.234 78.2974L133.33 78.8613C133.279 78.8855 133.226 78.9062 133.173 78.9232C133.1 78.9476 133.026 78.9668 132.951 78.9807C132.87 78.9984 132.781 79.0139 132.686 79.0249C132.591 79.036 132.491 79.0448 132.398 79.0515Z" fill="white"/>
<path d="M135.265 75.0974C135.498 75.0913 135.73 75.1273 135.95 75.2035C136.12 75.2641 136.272 75.3659 136.392 75.4998C136.509 75.631 136.592 75.7879 136.636 75.9576C136.686 76.148 136.711 76.3444 136.709 76.5414V78.8986L136.465 78.9384C136.361 78.9538 136.244 78.9715 136.114 78.9848C135.983 78.9981 135.842 79.0135 135.689 79.0246C135.537 79.0357 135.386 79.0423 135.247 79.0423C135.049 79.0447 134.851 79.0231 134.659 78.9782C134.492 78.9399 134.334 78.8692 134.194 78.7703C134.062 78.6748 133.957 78.5458 133.891 78.3966C133.812 78.2201 133.774 78.0282 133.779 77.8349C133.774 77.6478 133.818 77.4627 133.907 77.2976C133.989 77.1495 134.108 77.0248 134.252 76.935C134.408 76.8392 134.579 76.7704 134.758 76.7315C134.959 76.6884 135.163 76.6669 135.369 76.6674C135.442 76.6664 135.516 76.6701 135.59 76.6784C135.659 76.6842 135.727 76.6938 135.795 76.7072L135.966 76.7404L136.067 76.7603V76.5723C136.068 76.4615 136.056 76.351 136.032 76.2428C136.009 76.1382 135.965 76.0396 135.902 75.9532C135.834 75.8642 135.745 75.7941 135.643 75.7497C135.509 75.6937 135.365 75.6673 135.22 75.6723C135.025 75.6707 134.829 75.687 134.637 75.721C134.509 75.7415 134.384 75.7741 134.263 75.8183L134.183 75.2588C134.326 75.2058 134.474 75.1687 134.626 75.1483C134.837 75.1126 135.051 75.0956 135.265 75.0974V75.0974ZM136.569 73.806C136.545 73.8635 136.514 73.9321 136.472 74.0095C136.43 74.0902 136.377 74.1646 136.315 74.2306C136.25 74.2971 136.176 74.3531 136.094 74.3964C136.008 74.4428 135.912 74.4664 135.815 74.465C135.722 74.4665 135.63 74.4492 135.543 74.4141C135.459 74.381 135.377 74.3456 135.3 74.3058C135.223 74.266 135.147 74.2394 135.079 74.2195C135.026 74.2007 134.97 74.191 134.913 74.1908C134.829 74.1945 134.749 74.231 134.692 74.2925C134.625 74.3561 134.571 74.431 134.53 74.5136L134.181 74.3389C134.206 74.2689 134.238 74.2015 134.276 74.1377C134.318 74.0566 134.372 73.9821 134.435 73.9166C134.5 73.8493 134.574 73.7926 134.656 73.7485C134.742 73.7031 134.838 73.6796 134.935 73.68C135.028 73.6795 135.121 73.6968 135.207 73.7308C135.291 73.764 135.373 73.8016 135.45 73.8392C135.519 73.8728 135.589 73.9023 135.66 73.9276C135.715 73.9452 135.771 73.9549 135.829 73.9564C135.913 73.9519 135.992 73.9156 136.05 73.8547C136.116 73.7906 136.171 73.7158 136.213 73.6335L136.569 73.806ZM135.327 78.4784C135.486 78.4784 135.627 78.4784 135.751 78.4674C135.854 78.4612 135.957 78.4479 136.059 78.4276V77.302C135.984 77.2707 135.905 77.2499 135.824 77.2401C135.693 77.2228 135.561 77.2147 135.428 77.2158C135.32 77.2158 135.212 77.2232 135.105 77.2379C134.997 77.2502 134.892 77.2809 134.794 77.3286C134.701 77.3722 134.62 77.4365 134.557 77.5165C134.491 77.6085 134.459 77.7199 134.464 77.8327C134.453 77.9288 134.467 78.0262 134.506 78.1149C134.545 78.2035 134.607 78.2801 134.685 78.3369C134.882 78.4418 135.104 78.4907 135.327 78.4784V78.4784Z" fill="white"/>
<path d="M141.162 77.0764C141.166 77.3534 141.121 77.6288 141.029 77.8901C140.949 78.1199 140.825 78.3317 140.664 78.5137C140.508 78.6867 140.316 78.824 140.102 78.9161C139.877 79.012 139.635 79.0602 139.39 79.0576C139.146 79.0605 138.904 79.0123 138.68 78.9161C138.466 78.8245 138.274 78.6872 138.118 78.5137C137.956 78.3324 137.831 78.1204 137.751 77.8901C137.577 77.3639 137.577 76.7956 137.751 76.2693C137.83 76.0373 137.955 75.8236 138.118 75.6414C138.274 75.4679 138.466 75.3305 138.68 75.2389C138.904 75.1427 139.146 75.0945 139.39 75.0974C139.635 75.0949 139.877 75.143 140.102 75.2389C140.316 75.3311 140.508 75.4684 140.664 75.6414C140.826 75.8243 140.95 76.0378 141.029 76.2693C141.12 76.5286 141.165 76.8017 141.162 77.0764V77.0764ZM140.456 77.0764C140.475 76.7173 140.375 76.362 140.171 76.0659C140.077 75.9512 139.959 75.8588 139.825 75.7953C139.691 75.7318 139.545 75.6989 139.397 75.6989C139.249 75.6989 139.102 75.7318 138.968 75.7953C138.834 75.8588 138.716 75.9512 138.623 76.0659C138.435 76.3699 138.335 76.7202 138.335 77.0775C138.335 77.4349 138.435 77.7852 138.623 78.0891C138.716 78.2039 138.834 78.2963 138.968 78.3598C139.102 78.4232 139.249 78.4562 139.397 78.4562C139.545 78.4562 139.691 78.4232 139.825 78.3598C139.959 78.2963 140.077 78.2039 140.171 78.0891C140.375 77.7924 140.476 77.4363 140.456 77.0764V77.0764Z" fill="white"/>
</g>
<defs>
<clipPath id="clip0_131_55">
<rect width="166" height="80.334" fill="white"/>
</clipPath>
</defs>
</svg>
